<?xml version='1.0' encoding='utf-8'?>
<svg xmlns="http://www.w3.org/2000/svg" width="1920" height="1080" viewBox="0 0 1920 1080" data-theme="dark">
  <style>
        @font-face {
            font-family: 'Inter';
            src: url('assets/fonts/Inter-Regular.ttf') format('truetype');
            font-weight: 400;
            font-style: normal;
            font-display: swap;
        }
        @font-face {
            font-family: 'Inter';
            src: url('assets/fonts/Inter-Bold.ttf') format('truetype');
            font-weight: 600;
            font-style: normal;
            font-display: swap;
        }
        @font-face {
            font-family: 'Inter';
            src: url('assets/fonts/Inter-Bold.ttf') format('truetype');
            font-weight: 800;
            font-style: normal;
            font-display: swap;
        }
        
:root {
    --background: #0f172a;
    --panel: #1e293b;
    --primary-text: #f1f5f9;
    --muted-text: #94a3b8;
    --inverse-text: #0f172a;
    --border: #334155;
    --shadow-color: #000000;
    --icon-pad-bg: #1e293b;
    --art-glow: #7dd3fc;
    --art-glow-opacity: 0.18;
    --art-sheen: #ffffff;
    --art-sheen-opacity: 0.18;
    --art-shadow: #000000;
    --art-shadow-opacity: 0.28;
    --art-muted-line: #64748b;
    --art-panel-tint: #1e293b;
    --font-family: 'Inter', 'Segoe UI', 'Kalam', Roboto, Helvetica, Arial, sans-serif;
    --radius-xl: 16px;
    --font-family-headline: 'Inter', 'Segoe UI', 'Kalam', Roboto, Helvetica, Arial, sans-serif;
    --font-family-body: 'Inter', 'Segoe UI', 'Kalam', Roboto, Helvetica, Arial, sans-serif;
    --font-heading: 'Inter', 'Segoe UI', 'Kalam', Roboto, Helvetica, Arial, sans-serif;
    --font-body: 'Inter', 'Segoe UI', 'Kalam', Roboto, Helvetica, Arial, sans-serif;
    --font-size-h1: 56px;
    --font-size-h2: 40px;
    --font-size-h3: 28px;
    --font-size-body: 24px;
    --font-size-caption: 18px;
    --secondary-text: var(--muted-text);
    --panel-border: var(--border);
    --font-weight-normal: 400;
    --font-weight-medium: 500;
    --font-weight-semibold: 600;
    --font-weight-bold: 700;
    --spacing-gutter-pct: 0.07;
    --spacing-top-pct: 0.15;
    --spacing-bottom-pct: 0.07;
    --spacing-title-y-pct: 0.055;
    --accent-1: #a5b4fc;
    --accent-2: #34d399;
    --accent-3: #f472b6;
    --accent-4: #fbbf24;
    --accent-5: #38bdf8;
    --accent-6: #c084fc;
    --accent-7: #f87171;
    --accent-8: #2dd4bf;
    --accent-9: #fb923c;
    --accent-10: #e879f9;
}
:root[data-theme="dark"] {
    --background: #0f172a;
    --panel: #1e293b;
    --primary-text: #f1f5f9;
    --muted-text: #94a3b8;
    --inverse-text: #0f172a;
    --border: #334155;
    --shadow-color: #000000;
    --icon-pad-bg: #1e293b;
    --art-glow: #7dd3fc;
    --art-glow-opacity: 0.18;
    --art-sheen: #ffffff;
    --art-sheen-opacity: 0.18;
    --art-shadow: #000000;
    --art-shadow-opacity: 0.28;
    --art-muted-line: #64748b;
    --art-panel-tint: #1e293b;
    --accent-1: #a5b4fc;
    --accent-2: #34d399;
    --accent-3: #f472b6;
    --accent-4: #fbbf24;
    --accent-5: #38bdf8;
    --accent-6: #c084fc;
    --accent-7: #f87171;
    --accent-8: #2dd4bf;
    --accent-9: #fb923c;
    --accent-10: #e879f9;
}
:root[data-theme="light"] {
    --background: #f8fafc;
    --panel: #ffffff;
    --primary-text: #0f172a;
    --muted-text: #64748b;
    --inverse-text: #ffffff;
    --border: #e2e8f0;
    --shadow-color: #000000;
    --icon-pad-bg: #1e293b;
    --art-glow: #0891b2;
    --art-glow-opacity: 0.10;
    --art-sheen: #ffffff;
    --art-sheen-opacity: 0.34;
    --art-shadow: #0f172a;
    --art-shadow-opacity: 0.14;
    --art-muted-line: #94a3b8;
    --art-panel-tint: #f1f5f9;
    --accent-1: #4f46e5;
    --accent-2: #059669;
    --accent-3: #db2777;
    --accent-4: #d97706;
    --accent-5: #0284c7;
    --accent-6: #7c3aed;
    --accent-7: #dc2626;
    --accent-8: #0d9488;
    --accent-9: #ea580c;
    --accent-10: #c026d3;
}</style>
  <rect x="0" y="0" width="1.92E+3" height="1.08E+3" fill="#252a34" stroke="none" id="programmatic_background"/>
  <line id="HEADER_DECOR" x1="960.0" x2="1080.0" y1="95.0" y2="95.0" stroke="var(--accent-1)" stroke-width="6" stroke-linecap="round"/>
  <defs>
    <pattern id="svg7b1a43ed-napkin-hatch" patternUnits="userSpaceOnUse" width="12" height="12">
      <path d="M -3 12 L 12 -3 M 0 15 L 15 0" fill="none" stroke="var(--primary-text)" stroke-width="1" stroke-opacity="0.05"/>
    </pattern>
    <filter id="svg7b1a43ed-shadow" x="-30%" y="-30%" width="160%" height="160%">
      <feDropShadow dx="0" dy="4" stdDeviation="5" flood-color="#000000" flood-opacity="0.15"/>
    </filter>
    <filter id="svg7b1a43ed-text-glow" x="-20%" y="-20%" width="140%" height="140%">
      <feDropShadow dx="0" dy="0" stdDeviation="3" flood-color="#000000" flood-opacity="0.8"/>
    </filter>
    <radialGradient id="svg7b1a43ed-universal-edge-vignette" cx="50%" cy="50%" r="72%">
      <stop offset="0%" stop-color="var(--background)" stop-opacity="0"/>
      <stop offset="72%" stop-color="var(--background)" stop-opacity="0.12"/>
      <stop offset="100%" stop-color="var(--primary-text)" stop-opacity="0.08"/>
    </radialGradient>
    <linearGradient id="svg7b1a43ed-universal-surface-sheen" x1="0%" y1="0%" x2="100%" y2="100%">
      <stop offset="0%" stop-color="var(--art-sheen)" stop-opacity="var(--art-sheen-opacity)"/>
      <stop offset="46%" stop-color="var(--art-sheen)" stop-opacity="0.035"/>
      <stop offset="100%" stop-color="var(--art-panel-tint)" stop-opacity="0.14"/>
    </linearGradient>
    <radialGradient id="svg7b1a43ed-universal-icon-aura" cx="50%" cy="42%" r="64%">
      <stop offset="0%" stop-color="var(--art-glow)" stop-opacity="var(--art-glow-opacity)"/>
      <stop offset="100%" stop-color="var(--background)" stop-opacity="0"/>
    </radialGradient>
    <linearGradient id="svg7b1a43ed-earth-core-horizon" x1="0%" y1="0%" x2="0%" y2="100%">
      <stop offset="0%" stop-color="var(--accent-2)" stop-opacity="0.12"/>
      <stop offset="100%" stop-color="var(--background)" stop-opacity="0"/>
    </linearGradient>
    <marker id="svg7b1a43ed-arrowhead" markerWidth="10" markerHeight="7" refX="9" refY="3.5" orient="auto" markerUnits="strokeWidth">
      <polygon points="0 0, 10 3.5, 0 7" fill="var(--muted-text)" opacity="0.6"/>
    </marker>
  </defs>
  <rect width="100%" height="100%" fill="var(--background)" id="CANVAS_BG"/>
  <rect width="100%" height="100%" fill="url(#svg7b1a43ed-napkin-hatch)"/>
  <rect id="UNIVERSAL_EDGE_VIGNETTE" width="100%" height="100%" fill="url(#svg7b1a43ed-universal-edge-vignette)" opacity="0.62"/>
  <rect id="TITLE_FRAME" x="134" y="30" width="1652" height="70" fill="none"/>
  <text id="TITLE" x="960.0" y="59" font-size="48" font-weight="700" fill="#f1f5f9" text-anchor="middle" style="font-size: 60px; font-family: Inter, Segoe UI, Kalam, Roboto, Helvetica, Arial, sans-serif; font-weight: 700; letter-spacing:-1.2px;" data-final-font-size="60">
    <tspan x="960.0" dy="68.00px">Factors Blurring Base Proximity Claims</tspan>
  </text>
  <g id="DIAGRAM_MAIN">
    <rect id="EARTH_CORE_HORIZON" x="0" y="120" width="1920" height="380" fill="url(#svg7b1a43ed-earth-core-horizon)" opacity="0.80"/>
    <path id="EARTH_CORE_SURFACE_GLINT" d="M 236 286 C 622 236 1298 236 1684 286" fill="none" stroke="var(--inverse-text)" stroke-width="2" stroke-opacity="0.12" stroke-linecap="round"/>
    <!-- Layer 1 -->
    <circle id="ITEM_1_BG_RING" cx="960" cy="2200" r="1800" fill="var(--accent-7)" fill-opacity="0.2" stroke="var(--accent-7)" stroke-width="2" stroke-dasharray="10 10" stroke-opacity="1.0"/>
    <!-- Layer 2 -->
    <circle id="ITEM_2_BG_RING" cx="960" cy="2200" r="1650" fill="var(--accent-8)" fill-opacity="0.30000000000000004" stroke="var(--accent-8)" stroke-width="2" stroke-dasharray="10 10" stroke-opacity="1.0"/>
    <!-- Layer 3 -->
    <circle id="ITEM_3_BG_RING" cx="960" cy="2200" r="1500" fill="var(--accent-9)" fill-opacity="0.4" stroke="var(--accent-9)" stroke-width="2" stroke-dasharray="10 10" stroke-opacity="1.0"/>
    <!-- Layer 4 -->
    <circle id="ITEM_4_BG_RING" cx="960" cy="2200" r="1350" fill="var(--accent-10)" fill-opacity="0.5" stroke="var(--accent-10)" stroke-width="2" stroke-dasharray="10 10" stroke-opacity="1.0"/>
    <!-- Central Axis Line -->
    <line x1="960" y1="200" x2="960" y2="1050" stroke="var(--primary-text)" stroke-width="4" stroke-dasharray="16 12" stroke-linecap="round" opacity="0.3"/>
    <circle cx="960" cy="250.0" r="64" fill="url(#svg7b1a43ed-universal-icon-aura)" opacity="0.82"/>
    <g transform="translate(960, 250.0)">
      <circle id="ITEM_1_STROKE" cx="0" cy="0" r="37" fill="transparent" stroke="var(--accent-7)" stroke-width="3" stroke-opacity="1.0"/>
      <circle id="ITEM_1_BORDER" cx="0" cy="0" r="45" fill="transparent" stroke="var(--accent-7)" stroke-width="3" stroke-dasharray="6 4" stroke-opacity="1.0"/>
      <circle id="ITEM_1_PAD" cx="0.00" cy="0.00" r="40.00" fill="var(--icon-pad-bg)" stroke="var(--primary-text)" stroke-width="2" opacity="0.9"/>
      <circle id="ITEM_1_PAD_INNER" cx="0.00" cy="0.00" r="31.20" fill="var(--accent-7)" fill-opacity="0.22"/>
      <g id="ITEM_1_ICON" transform="translate(-25, -25)" data-icon-size="50" stroke-dasharray="6 4">
        <g transform="translate(-8.961061946902662,-8.684955752212394) scale(2.2088495575221243)">
          <path d="M14.14 2C14.14 1.58579 13.8042 1.25 13.39 1.25C12.9758 1.25 12.64 1.58579 12.64 2V6C12.64 6.41421 12.9758 6.75 13.39 6.75C13.8042 6.75 14.14 6.41421 14.14 6V2Z" fill="#F9C23C"/>
          <path d="M5.58032 4.12964C5.28742 3.83675 4.81255 3.83675 4.51966 4.12964C4.22676 4.42254 4.22676 4.89741 4.51966 5.1903L7.62966 8.3003C7.92255 8.5932 8.39742 8.5932 8.69032 8.3003C8.98321 8.00741 8.98321 7.53254 8.69032 7.23964L5.58032 4.12964Z" fill="#F9C23C"/>
          <path d="M1.25 13.14C1.25 12.7258 1.58579 12.39 2 12.39H5.89C6.30421 12.39 6.64 12.7258 6.64 13.14C6.64 13.5542 6.30421 13.89 5.89 13.89H2C1.58579 13.89 1.25 13.5542 1.25 13.14Z" fill="#F9C23C"/>
          <path d="M17.0866 7.05107C17.9184 7.88288 16.4179 10.7321 13.735 13.415C11.0521 16.0979 8.20289 17.5984 7.37108 16.7666C6.53927 15.9348 8.03986 13.0856 10.7227 10.4027C13.4056 7.71985 16.2548 6.21927 17.0866 7.05107Z" fill="#F9C23C"/>
          <path d="M20.6699 14.69L28.0899 22.11C29.6799 23.7 29.6699 26.3 28.0599 27.91C26.4499 29.52 23.8499 29.53 22.2599 27.94L14.7099 20.39C12.7199 20.61 10.6499 19.97 9.12988 18.44L12.8199 12.5L18.7599 8.81C20.3699 10.42 20.9999 12.62 20.6699 14.69Z" fill="#B4ACBC"/>
          <path d="M7.05986 17.72L7.91986 18.58C8.26986 18.93 8.84986 18.93 9.19986 18.58L18.8999 8.87999C19.2499 8.52999 19.2499 7.94999 18.8999 7.59999L18.0399 6.74999C17.6899 6.39999 17.1099 6.39999 16.7599 6.74999L7.05986 16.45C6.70986 16.8 6.70986 17.37 7.05986 17.72Z" fill="#321B41"/>
          <path d="M18.2302 19.09L19.4402 20.3C19.7502 20.61 20.2702 20.61 20.5802 20.3L20.6102 20.27C20.9202 19.96 20.9202 19.44 20.6102 19.13L19.4002 17.92C19.0902 17.61 18.5702 17.61 18.2602 17.92L18.2302 17.95C17.9102 18.26 17.9102 18.77 18.2302 19.09Z" fill="#F4F4F4"/>
        </g>
      </g>
    </g>
    <!-- Connector -->
    <line id="ITEM_1_CONN" x1="920" y1="250.0" x2="670.0" y2="250.0" stroke="var(--accent-7)" stroke-width="2" stroke-dasharray="4 4" opacity="0.6" stroke-opacity="1.0"/>
    <circle cx="670.0" cy="250.0" r="5" fill="var(--accent-1)"/>
    <!-- Rigid text block -->
    <!-- _FRAME guarantees text wraps neatly within text_w -->
    <rect id="ITEM_1_TEXT_BG" x="32.0" y="159.0" width="636.0" height="207.0" rx="22" fill="var(--panel)" fill-opacity="0.94" stroke="var(--primary-text)" stroke-opacity="0.12" stroke-width="1.5"/>
    <rect x="32.0" y="159.0" width="636.0" height="207.0" rx="16" fill="url(#svg7b1a43ed-universal-surface-sheen)" opacity="0.76"/>
    <rect id="ITEM_1_HEAD_FRAME" x="50.0" y="175.0" width="600" height="45" fill="none"/>
    <text id="ITEM_1_HEAD" data-bg-id="ITEM_1_TEXT_BG" x="650.0" y="175.0" font-weight="bold" font-size="28" fill="var(--accent-7)" text-anchor="end" fill-opacity="1.0" stroke="none" style="font-size: 30px; font-family: Inter, Segoe UI, Kalam, Roboto, Helvetica, Arial, sans-serif; font-weight: 700; letter-spacing:-0.4px;" data-final-font-size="30">
      <tspan x="650.0" dy="30.75px">Visual Compression</tspan>
    </text>
    <rect id="ITEM_1_BODY_FRAME" x="50.0" y="265.0" width="600" height="85" fill="none"/>
    <text id="ITEM_1_BODY" data-bg-id="ITEM_1_TEXT_BG" x="650.0" y="265.0" font-size="20" fill="var(--primary-text)" text-anchor="end" style="font-size: 26px; font-family: Inter, Segoe UI, Kalam, Roboto, Helvetica, Arial, sans-serif; font-weight: 400;" data-final-font-size="26">
      <tspan x="650.0" dy="25.84px">Distant lights appear closer at night</tspan>
      <tspan x="650.0" dy="29.90px">over large bases</tspan>
    </text>
    <circle cx="960" cy="483.33333333333337" r="64" fill="url(#svg7b1a43ed-universal-icon-aura)" opacity="0.82"/>
    <g transform="translate(960, 483.33333333333337)">
      <circle id="ITEM_2_STROKE" cx="0" cy="0" r="37" fill="transparent" stroke="var(--accent-8)" stroke-width="3" stroke-opacity="1.0"/>
      <circle id="ITEM_2_BORDER" cx="0" cy="0" r="45" fill="transparent" stroke="var(--accent-8)" stroke-width="3" stroke-dasharray="6 4" stroke-opacity="1.0"/>
      <circle id="ITEM_2_PAD" cx="0.00" cy="0.00" r="40.00" fill="var(--icon-pad-bg)" stroke="var(--primary-text)" stroke-width="2" opacity="0.9"/>
      <circle id="ITEM_2_PAD_INNER" cx="0.00" cy="0.00" r="31.20" fill="var(--accent-8)" fill-opacity="0.22"/>
      <g id="ITEM_2_ICON" transform="translate(-25, -25)" data-icon-size="50" stroke-dasharray="6 4">
        <g transform="translate(-10.65714285714286,-8.42857142857143) scale(0.2785714285714286)" vector-effect="non-scaling-stroke" stroke-width="2.31" stroke-linecap="round" stroke-linejoin="round" stroke-opacity="1.0">
          <path d="M24,176V64A24,24,0,0,1,48,40H64V152H48a24,24,0,0,0,0,48H232V64H64" fill="none" stroke="#f1f5f9" vector-effect="non-scaling-stroke"/>
          <line x1="128" y1="96" x2="128" y2="160" fill="none" stroke="#f1f5f9" vector-effect="non-scaling-stroke"/>
          <line x1="168" y1="96" x2="168" y2="160" fill="none" stroke="#f1f5f9" vector-effect="non-scaling-stroke"/>
          <line x1="104" y1="112" x2="192" y2="112" fill="none" stroke="#f1f5f9" vector-effect="non-scaling-stroke"/>
          <line x1="104" y1="144" x2="192" y2="144" fill="none" stroke="#f1f5f9" vector-effect="non-scaling-stroke"/>
        </g>
      </g>
    </g>
    <!-- Connector -->
    <line id="ITEM_2_CONN" x1="1000" y1="483.33333333333337" x2="1250.0" y2="483.33333333333337" stroke="var(--accent-8)" stroke-width="2" stroke-dasharray="4 4" opacity="0.6" stroke-opacity="1.0"/>
    <circle cx="1250.0" cy="483.33333333333337" r="5" fill="var(--accent-2)"/>
    <!-- Rigid text block -->
    <!-- _FRAME guarantees text wraps neatly within text_w -->
    <rect id="ITEM_2_TEXT_BG" x="1252.0" y="392.3" width="636.0" height="207.0" rx="22" fill="var(--panel)" fill-opacity="0.94" stroke="var(--primary-text)" stroke-opacity="0.12" stroke-width="1.5"/>
    <rect x="1252.0" y="392.3" width="636.0" height="207.0" rx="16" fill="url(#svg7b1a43ed-universal-surface-sheen)" opacity="0.76"/>
    <rect id="ITEM_2_HEAD_FRAME" x="1270.0" y="408.33333333333337" width="600" height="45" fill="none"/>
    <text id="ITEM_2_HEAD" data-bg-id="ITEM_2_TEXT_BG" x="1270.0" y="408.33333333333337" font-weight="bold" font-size="28" fill="var(--accent-8)" text-anchor="start" fill-opacity="1.0" stroke="none" style="font-size: 30px; font-family: Inter, Segoe UI, Kalam, Roboto, Helvetica, Arial, sans-serif; font-weight: 700; letter-spacing:-0.4px;" data-final-font-size="30">
      <tspan x="1270.0" dy="30.75px">Changing Site Layouts</tspan>
    </text>
    <rect id="ITEM_2_BODY_FRAME" x="1270.0" y="498.33333333333337" width="600" height="85" fill="none"/>
    <text id="ITEM_2_BODY" data-bg-id="ITEM_2_TEXT_BG" x="1270.0" y="498.33333333333337" font-size="20" fill="var(--primary-text)" text-anchor="start" style="font-size: 26px; font-family: Inter, Segoe UI, Kalam, Roboto, Helvetica, Arial, sans-serif; font-weight: 400;" data-final-font-size="26">
      <tspan x="1270.0" dy="25.84px">Base expansions and reorganizations confuse</tspan>
      <tspan x="1270.0" dy="29.90px">historical locations</tspan>
    </text>
    <circle cx="960" cy="716.6666666666667" r="64" fill="url(#svg7b1a43ed-universal-icon-aura)" opacity="0.82"/>
    <g transform="translate(960, 716.6666666666667)">
      <circle id="ITEM_3_STROKE" cx="0" cy="0" r="37" fill="transparent" stroke="var(--accent-9)" stroke-width="3" stroke-opacity="1.0"/>
      <circle id="ITEM_3_BORDER" cx="0" cy="0" r="45" fill="transparent" stroke="var(--accent-9)" stroke-width="3" stroke-dasharray="6 4" stroke-opacity="1.0"/>
      <circle id="ITEM_3_PAD" cx="0.00" cy="0.00" r="40.00" fill="var(--icon-pad-bg)" stroke="var(--primary-text)" stroke-width="2" opacity="0.9"/>
      <circle id="ITEM_3_PAD_INNER" cx="0.00" cy="0.00" r="31.20" fill="var(--accent-9)" fill-opacity="0.22"/>
      <g id="ITEM_3_ICON" transform="translate(-25, -25)" data-icon-size="50" stroke-dasharray="6 4">
        <g transform="translate(-10.65714285714286,-10.65714285714286) scale(2.2285714285714286)">
          <path d="M14.9998 5.5L16.6147 4.98752L16.6662 4.93638C17.1092 4.49106 17.1092 3.78065 16.6768 3.33532C16.2443 2.88999 15.5272 2.89002 15.0842 3.32474L14.0215 4.38018L14.9998 5.5ZM28.659 17.9364L27.9804 18.6117L26.9998 17.5L27.4424 16.0851C27.8529 15.9163 28.3427 15.9981 28.6695 16.3353C29.1116 16.77 29.1116 17.4911 28.659 17.9364Z" fill="#9B9B9B"/>
          <path d="M14.1209 28.8751L12.7723 23.3207C14.5105 22.308 16.1288 21.1049 17.5973 19.7113L21.0251 16.4565L24.4676 14.906L26.411 11.3426L28.7058 9.16379C30.394 7.5596 30.434 4.88261 28.8057 3.2283C27.1674 1.57399 24.5001 1.59405 22.8818 3.26841L20.3602 5.89209L16.2607 7.61854L15.2234 11.2368L12.2628 14.3172C10.8643 15.781 9.63554 17.3952 8.6166 19.1297L3.09231 17.7261C2.78264 17.6459 2.46297 17.7361 2.2332 17.9567C1.79366 18.3978 2.03342 18.9493 2.47296 19.4105L12.4227 29.4968C12.9121 30.0181 13.4316 30.1886 13.8712 29.7474C14.1109 29.5068 14.2008 29.186 14.1209 28.8751Z" fill="#CDC4D6"/>
          <path d="M27.7929 5.76988L26.2533 4.21808C25.9708 3.92892 25.503 3.92894 25.2205 4.20846C24.9282 4.48797 24.9282 4.95062 25.2107 5.23013L26.7503 6.78191C27.0329 7.07106 27.5006 7.07107 27.7831 6.79156C28.0657 6.51204 28.0755 6.05904 27.7929 5.76988Z" fill="#00A6ED"/>
          <path d="M15.2156 11.2449L20.3817 5.8697L8.34626 3.051C7.88626 2.941 7.39625 3.011 6.97625 3.241C5.67625 3.971 5.67625 5.83101 6.96625 6.56101L15.2156 11.2449ZM26.4293 11.3253L21.0085 16.4723L25.46 24.7C26.16 26.01 28.03 26.04 28.78 24.76C29.02 24.35 29.1 23.87 29 23.4L26.4293 11.3253ZM8.15643 22.3151C8.57618 21.8934 9.26303 21.8934 9.68277 22.3246C10.1121 22.7463 10.1025 23.4363 9.67323 23.8579L6.83996 26.6849C6.42022 27.1066 5.73337 27.1066 5.31362 26.6754C4.89388 26.2537 4.89388 25.5637 5.32317 25.1421L8.15643 22.3151Z" fill="#0084CE"/>
        </g>
      </g>
    </g>
    <!-- Connector -->
    <line id="ITEM_3_CONN" x1="920" y1="716.6666666666667" x2="670.0" y2="716.6666666666667" stroke="var(--accent-9)" stroke-width="2" stroke-dasharray="4 4" opacity="0.6" stroke-opacity="1.0"/>
    <circle cx="670.0" cy="716.6666666666667" r="5" fill="var(--accent-3)"/>
    <!-- Rigid text block -->
    <!-- _FRAME guarantees text wraps neatly within text_w -->
    <rect id="ITEM_3_TEXT_BG" x="32.0" y="625.7" width="636.0" height="207.0" rx="22" fill="var(--panel)" fill-opacity="0.94" stroke="var(--primary-text)" stroke-opacity="0.12" stroke-width="1.5"/>
    <rect x="32.0" y="625.7" width="636.0" height="207.0" rx="16" fill="url(#svg7b1a43ed-universal-surface-sheen)" opacity="0.76"/>
    <rect id="ITEM_3_HEAD_FRAME" x="50.0" y="641.6666666666667" width="600" height="45" fill="none"/>
    <text id="ITEM_3_HEAD" data-bg-id="ITEM_3_TEXT_BG" x="650.0" y="641.6666666666667" font-weight="bold" font-size="28" fill="var(--accent-9)" text-anchor="end" fill-opacity="1.0" stroke="none" style="font-size: 30px; font-family: Inter, Segoe UI, Kalam, Roboto, Helvetica, Arial, sans-serif; font-weight: 700; letter-spacing:-0.4px;" data-final-font-size="30">
      <tspan x="650.0" dy="30.75px">Nuclear Capability Distinction</tspan>
    </text>
    <rect id="ITEM_3_BODY_FRAME" x="50.0" y="731.6666666666667" width="600" height="85" fill="none"/>
    <text id="ITEM_3_BODY" data-bg-id="ITEM_3_TEXT_BG" x="650.0" y="731.6666666666667" font-size="20" fill="var(--primary-text)" text-anchor="end" style="font-size: 26px; font-family: Inter, Segoe UI, Kalam, Roboto, Helvetica, Arial, sans-serif; font-weight: 400;" data-final-font-size="26">
      <tspan x="650.0" dy="25.84px">Aircraft roles differ from actual</tspan>
      <tspan x="650.0" dy="29.90px">weapon storage sites</tspan>
    </text>
    <circle cx="960" cy="950.0" r="64" fill="url(#svg7b1a43ed-universal-icon-aura)" opacity="0.82"/>
    <g transform="translate(960, 950.0)">
      <circle id="ITEM_4_STROKE" cx="0" cy="0" r="37" fill="transparent" stroke="var(--accent-10)" stroke-width="3" stroke-opacity="1.0"/>
      <circle id="ITEM_4_BORDER" cx="0" cy="0" r="45" fill="transparent" stroke="var(--accent-10)" stroke-width="3" stroke-dasharray="6 4" stroke-opacity="1.0"/>
      <circle id="ITEM_4_PAD" cx="0.00" cy="0.00" r="40.00" fill="var(--icon-pad-bg)" stroke="var(--primary-text)" stroke-width="2" opacity="0.9"/>
      <circle id="ITEM_4_PAD_INNER" cx="0.00" cy="0.00" r="31.20" fill="var(--accent-10)" fill-opacity="0.22"/>
      <g id="ITEM_4_ICON" transform="translate(-25, -25)" data-icon-size="50" stroke-dasharray="6 4">
        <g transform="translate(-10.65714285714286,-11.771428571428572) scale(2.2285714285714286)">
          <path d="M22.5247 17.94C26.6502 17.94 29.9947 14.5956 29.9947 10.47C29.9947 6.34443 26.6502 3 22.5247 3C18.3991 3 15.0547 6.34443 15.0547 10.47C15.0547 14.5956 18.3991 17.94 22.5247 17.94Z" fill="#533566"/>
          <path d="M2.64445 29.2101C1.81445 28.3301 1.78446 26.9601 2.56446 26.0401L15.1045 11.3401L21.2145 17.8201L5.80445 29.4801C4.84445 30.2101 3.47445 30.0901 2.64445 29.2101Z" fill="#9B9B9B"/>
          <path d="M18.9958 4.00515L28.9358 14.5552C29.5958 15.2552 29.5658 16.3552 28.8658 17.0051C28.1658 17.6651 27.0758 17.6352 26.4158 16.9352L16.4758 6.38515C15.8158 5.68515 15.8458 4.59517 16.5458 3.93517C17.2458 3.27517 18.3358 3.30515 18.9958 4.00515ZM15.4146 18.5302C15.4146 19.342 14.7565 20.0002 13.9446 20.0002C13.1328 20.0002 12.4746 19.342 12.4746 18.5302C12.4746 17.7183 13.1328 17.0602 13.9446 17.0602C14.7565 17.0602 15.4146 17.7183 15.4146 18.5302Z" fill="#BEBEBE"/>
        </g>
      </g>
    </g>
    <!-- Connector -->
    <line id="ITEM_4_CONN" x1="1000" y1="950.0" x2="1250.0" y2="950.0" stroke="var(--accent-10)" stroke-width="2" stroke-dasharray="4 4" opacity="0.6" stroke-opacity="1.0"/>
    <circle cx="1250.0" cy="950.0" r="5" fill="var(--accent-4)"/>
    <!-- Rigid text block -->
    <!-- _FRAME guarantees text wraps neatly within text_w -->
    <rect id="ITEM_4_TEXT_BG" x="1252.0" y="859.0" width="636.0" height="207.0" rx="22" fill="var(--panel)" fill-opacity="0.94" stroke="var(--primary-text)" stroke-opacity="0.12" stroke-width="1.5"/>
    <rect x="1252.0" y="859.0" width="636.0" height="207.0" rx="16" fill="url(#svg7b1a43ed-universal-surface-sheen)" opacity="0.76"/>
    <rect id="ITEM_4_HEAD_FRAME" x="1270.0" y="875.0" width="600" height="45" fill="none"/>
    <text id="ITEM_4_HEAD" data-bg-id="ITEM_4_TEXT_BG" x="1270.0" y="875.0" font-weight="bold" font-size="28" fill="var(--accent-10)" text-anchor="start" fill-opacity="1.0" stroke="none" style="font-size: 30px; font-family: Inter, Segoe UI, Kalam, Roboto, Helvetica, Arial, sans-serif; font-weight: 700; letter-spacing:-0.4px;" data-final-font-size="30">
      <tspan x="1270.0" dy="30.75px">Narrative Simplification</tspan>
    </text>
    <rect id="ITEM_4_BODY_FRAME" x="1270.0" y="965.0" width="600" height="85" fill="none"/>
    <text id="ITEM_4_BODY" data-bg-id="ITEM_4_TEXT_BG" x="1270.0" y="965.0" font-size="20" fill="var(--primary-text)" text-anchor="start" style="font-size: 26px; font-family: Inter, Segoe UI, Kalam, Roboto, Helvetica, Arial, sans-serif; font-weight: 400;" data-final-font-size="26">
      <tspan x="1270.0" dy="25.84px">Dramatic retellings omit complex geographical</tspan>
      <tspan x="1270.0" dy="29.90px">nuances of bases</tspan>
    </text>
  </g>
</svg>
