<?xml version='1.0' encoding='utf-8'?>
<svg xmlns="http://www.w3.org/2000/svg" width="1920" height="1080" viewBox="0 0 1920 1080" data-theme="dark">
  <style>
        @font-face {
            font-family: 'Inter';
            src: url('assets/fonts/Inter-Regular.ttf') format('truetype');
            font-weight: 400;
            font-style: normal;
            font-display: swap;
        }
        @font-face {
            font-family: 'Inter';
            src: url('assets/fonts/Inter-Bold.ttf') format('truetype');
            font-weight: 600;
            font-style: normal;
            font-display: swap;
        }
        @font-face {
            font-family: 'Inter';
            src: url('assets/fonts/Inter-Bold.ttf') format('truetype');
            font-weight: 800;
            font-style: normal;
            font-display: swap;
        }
        
:root {
    --background: #0f172a;
    --panel: #1e293b;
    --primary-text: #f1f5f9;
    --muted-text: #94a3b8;
    --inverse-text: #0f172a;
    --border: #334155;
    --shadow-color: #000000;
    --icon-pad-bg: #1e293b;
    --art-glow: #7dd3fc;
    --art-glow-opacity: 0.18;
    --art-sheen: #ffffff;
    --art-sheen-opacity: 0.18;
    --art-shadow: #000000;
    --art-shadow-opacity: 0.28;
    --art-muted-line: #64748b;
    --art-panel-tint: #1e293b;
    --font-family: 'Inter', 'Segoe UI', 'Kalam', Roboto, Helvetica, Arial, sans-serif;
    --radius-xl: 16px;
    --font-family-headline: 'Inter', 'Segoe UI', 'Kalam', Roboto, Helvetica, Arial, sans-serif;
    --font-family-body: 'Inter', 'Segoe UI', 'Kalam', Roboto, Helvetica, Arial, sans-serif;
    --font-heading: 'Inter', 'Segoe UI', 'Kalam', Roboto, Helvetica, Arial, sans-serif;
    --font-body: 'Inter', 'Segoe UI', 'Kalam', Roboto, Helvetica, Arial, sans-serif;
    --font-size-h1: 56px;
    --font-size-h2: 40px;
    --font-size-h3: 28px;
    --font-size-body: 24px;
    --font-size-caption: 18px;
    --secondary-text: var(--muted-text);
    --panel-border: var(--border);
    --font-weight-normal: 400;
    --font-weight-medium: 500;
    --font-weight-semibold: 600;
    --font-weight-bold: 700;
    --spacing-gutter-pct: 0.07;
    --spacing-top-pct: 0.15;
    --spacing-bottom-pct: 0.07;
    --spacing-title-y-pct: 0.055;
    --accent-1: #93c5fd;
    --accent-2: #86efac;
    --accent-3: #fcd34d;
    --accent-4: #f9a8d4;
    --accent-5: #c4b5fd;
    --accent-6: #a5f3fc;
}
:root[data-theme="dark"] {
    --background: #0f172a;
    --panel: #1e293b;
    --primary-text: #f1f5f9;
    --muted-text: #94a3b8;
    --inverse-text: #0f172a;
    --border: #334155;
    --shadow-color: #000000;
    --icon-pad-bg: #1e293b;
    --art-glow: #7dd3fc;
    --art-glow-opacity: 0.18;
    --art-sheen: #ffffff;
    --art-sheen-opacity: 0.18;
    --art-shadow: #000000;
    --art-shadow-opacity: 0.28;
    --art-muted-line: #64748b;
    --art-panel-tint: #1e293b;
    --accent-1: #93c5fd;
    --accent-2: #86efac;
    --accent-3: #fcd34d;
    --accent-4: #f9a8d4;
    --accent-5: #c4b5fd;
    --accent-6: #a5f3fc;
}
:root[data-theme="light"] {
    --background: #f8fafc;
    --panel: #ffffff;
    --primary-text: #0f172a;
    --muted-text: #64748b;
    --inverse-text: #ffffff;
    --border: #e2e8f0;
    --shadow-color: #000000;
    --icon-pad-bg: #1e293b;
    --art-glow: #0891b2;
    --art-glow-opacity: 0.10;
    --art-sheen: #ffffff;
    --art-sheen-opacity: 0.34;
    --art-shadow: #0f172a;
    --art-shadow-opacity: 0.14;
    --art-muted-line: #94a3b8;
    --art-panel-tint: #f1f5f9;
    --accent-1: #3b82f6;
    --accent-2: #22c55e;
    --accent-3: #f59e0b;
    --accent-4: #ec4899;
    --accent-5: #8b5cf6;
    --accent-6: #06b6d4;
}</style>
  <rect x="0" y="0" width="1.92E+3" height="1.08E+3" fill="#252a34" stroke="none" id="programmatic_background"/>
  <line id="HEADER_DECOR" x1="960.0" x2="1080.0" y1="85.0" y2="85.0" stroke="var(--accent-1)" stroke-width="6" stroke-linecap="round"/>
  <defs>
    <pattern id="svgaf992fe9-napkin-hatch" patternUnits="userSpaceOnUse" width="12" height="12">
      <path d="M -3 12 L 12 -3 M 0 15 L 15 0" fill="none" stroke="var(--primary-text)" stroke-width="1" stroke-opacity="0.1"/>
    </pattern>
    <filter id="svgaf992fe9-shadow" x="-20%" y="-20%" width="140%" height="140%">
      <feDropShadow dx="0" dy="4" stdDeviation="6" flood-opacity="0.2"/>
    </filter>
    <linearGradient id="svgaf992fe9-bg-grad-1" x1="0%" y1="0%" x2="100%" y2="100%">
      <stop offset="0%" stop-color="var(--accent-1)"/>
      <stop offset="100%" stop-color="var(--accent-1)"/>
    </linearGradient>
    <linearGradient id="svgaf992fe9-bg-grad-2" x1="0%" y1="0%" x2="100%" y2="100%">
      <stop offset="0%" stop-color="var(--accent-7)"/>
      <stop offset="100%" stop-color="var(--accent-7)"/>
    </linearGradient>
    <linearGradient id="svgaf992fe9-bg-grad-3" x1="0%" y1="0%" x2="100%" y2="100%">
      <stop offset="0%" stop-color="var(--accent-3)"/>
      <stop offset="100%" stop-color="var(--accent-3)"/>
    </linearGradient>
    <linearGradient id="svgaf992fe9-bg-grad-4" x1="0%" y1="0%" x2="100%" y2="100%">
      <stop offset="0%" stop-color="var(--accent-2)"/>
      <stop offset="100%" stop-color="var(--accent-2)"/>
    </linearGradient>
    <linearGradient id="svgaf992fe9-bg-grad-5" x1="0%" y1="0%" x2="100%" y2="100%">
      <stop offset="0%" stop-color="var(--accent-4)"/>
      <stop offset="100%" stop-color="var(--accent-4)"/>
    </linearGradient>
    <radialGradient id="svgaf992fe9-universal-edge-vignette" cx="50%" cy="50%" r="72%">
      <stop offset="0%" stop-color="var(--background)" stop-opacity="0"/>
      <stop offset="72%" stop-color="var(--background)" stop-opacity="0.12"/>
      <stop offset="100%" stop-color="var(--primary-text)" stop-opacity="0.08"/>
    </radialGradient>
    <linearGradient id="svgaf992fe9-universal-surface-sheen" x1="0%" y1="0%" x2="100%" y2="100%">
      <stop offset="0%" stop-color="var(--art-sheen)" stop-opacity="var(--art-sheen-opacity)"/>
      <stop offset="46%" stop-color="var(--art-sheen)" stop-opacity="0.035"/>
      <stop offset="100%" stop-color="var(--art-panel-tint)" stop-opacity="0.14"/>
    </linearGradient>
    <radialGradient id="svgaf992fe9-universal-icon-aura" cx="50%" cy="42%" r="64%">
      <stop offset="0%" stop-color="var(--art-glow)" stop-opacity="var(--art-glow-opacity)"/>
      <stop offset="100%" stop-color="var(--background)" stop-opacity="0"/>
    </radialGradient>
    <linearGradient id="svgaf992fe9-umbrella-rain-fade" x1="0%" y1="0%" x2="0%" y2="100%">
      <stop offset="0%" stop-color="var(--art-glow)" stop-opacity="var(--art-glow-opacity)"/>
      <stop offset="100%" stop-color="var(--background)" stop-opacity="0"/>
    </linearGradient>
    <filter id="svgaf992fe9-text-glow" x="-20%" y="-20%" width="140%" height="140%">
      <feDropShadow dx="0" dy="0" stdDeviation="2" flood-color="#000000" flood-opacity="0.4"/>
    </filter>
    <marker id="svgaf992fe9-arrowhead" markerWidth="10" markerHeight="7" refX="9" refY="3.5" orient="auto" markerUnits="strokeWidth">
      <polygon points="0 0, 10 3.5, 0 7" fill="var(--muted-text)" opacity="0.6"/>
    </marker>
  </defs>
  <rect width="100%" height="100%" fill="var(--background)" id="CANVAS_BG"/>
  <rect width="100%" height="100%" fill="url(#svgaf992fe9-napkin-hatch)"/>
  <rect id="UNIVERSAL_EDGE_VIGNETTE" width="100%" height="100%" fill="url(#svgaf992fe9-universal-edge-vignette)" opacity="0.62"/>
  <text id="TITLE" x="960.0" y="59" font-size="56" font-weight="700" fill="#f1f5f9" text-anchor="middle" style="font-size: 60px; font-family: Inter, Segoe UI, Kalam, Roboto, Helvetica, Arial, sans-serif; font-weight: 700; letter-spacing:-1.2px;" data-final-font-size="60">
    <tspan x="960.0" dy="68.00px">Contemporaneous Documentation Types</tspan>
  </text>
  <rect id="TITLE_FRAME" x="134" y="8" width="1652" height="54" fill="none"/>
  <g id="DIAGRAM_MAIN">
    <path id="UMBRELLA_RAIN_1" d="M 392 164 L 392 212 M 516 126 L 516 172 M 1406 148 L 1406 202 M 1538 118 L 1538 164" stroke="url(#svgaf992fe9-umbrella-rain-fade)" stroke-width="3" stroke-linecap="round"/>
    <ellipse id="UMBRELLA_GROUND_SHADOW" cx="960" cy="918" rx="270" ry="34" fill="var(--primary-text)" opacity="0.055"/>
    <rect x="952.0" y="500" width="16" height="380" fill="var(--primary-text)" rx="8"/>
    <path id="UMBRELLA_HANDLE_HIGHLIGHT" d="M 972 512 L 972 872" stroke="var(--inverse-text)" stroke-width="3" stroke-opacity="0.16" stroke-linecap="round"/>
    <path d="M 960 880 Q 960 960 920 960 Q 880 960 880 920" fill="none" stroke="var(--primary-text)" stroke-width="16" stroke-linecap="round"/>
    <!-- Segment 1: Far Left (180 to 216 deg) -->
    <path id="ITEM_1_BG" d="M 960 650 L 610.0 650.0 A 350 350 0 0 1 676.8440519687683 444.2751616976344 Z" fill="var(--accent-4)" filter="url(#svgaf992fe9-shadow)" stroke="var(--background)" stroke-width="2" fill-opacity="0.38"/>
    <path id="UMBRELLA_PANEL_SHEEN_1" d="M 960 650 L 960 306" stroke="none" stroke-width="2" stroke-opacity="0.08" stroke-linecap="round" fill="var(--accent-4)" fill-opacity="0.15"/>
    <circle cx="741.3" cy="578.9" r="76" fill="url(#svgaf992fe9-universal-icon-aura)" opacity="0.84"/>
    <circle id="ITEM_1_PAD" cx="741.3" cy="578.9" r="58" fill="var(--icon-pad-bg)" stroke="var(--primary-text)" opacity="0.9" fill-opacity="0.9" stroke-width="2"/>
    <circle id="ITEM_1_PAD_INNER" cx="741.3" cy="578.9" r="45.24" fill="var(--accent-4)" fill-opacity="0.22"/>
    <circle cx="741.3" cy="578.9" r="46.4" fill="none" stroke="var(--accent-1)" stroke-width="3" stroke-dasharray="6 4"/>
    <g id="ITEM_1_ICON" transform="translate(696.3, 533.9)" data-icon-size="90">
      <g transform="translate(-8.61777777777778,-8.617777777777782) scale(4.468148148148148)" vector-effect="non-scaling-stroke" stroke-width="2.79" stroke-linecap="round" stroke-linejoin="round" stroke-opacity="1.0">
        <path d="M3 5h1" vector-effect="non-scaling-stroke" fill="none" stroke="#f1f5f9"/>
        <path d="M3 12h1" vector-effect="non-scaling-stroke" fill="none" stroke="#f1f5f9"/>
        <path d="M3 19h1" vector-effect="non-scaling-stroke" fill="none" stroke="#f1f5f9"/>
        <path d="M8 5h1" vector-effect="non-scaling-stroke" fill="none" stroke="#f1f5f9"/>
        <path d="M8 12h1" vector-effect="non-scaling-stroke" fill="none" stroke="#f1f5f9"/>
        <path d="M8 19h1" vector-effect="non-scaling-stroke" fill="none" stroke="#f1f5f9"/>
        <path d="M13 5h8" vector-effect="non-scaling-stroke" fill="none" stroke="#f1f5f9"/>
        <path d="M13 12h8" vector-effect="non-scaling-stroke" fill="none" stroke="#f1f5f9"/>
        <path d="M13 19h8" vector-effect="non-scaling-stroke" fill="none" stroke="#f1f5f9"/>
      </g>
    </g>
    <line x1="685.0" y1="560.0" x2="600.0" y2="533.0" stroke="var(--accent-1)" stroke-width="3" stroke-dasharray="6 4"/>
    <circle cx="600.0" cy="533.0" r="5" fill="var(--accent-1)"/>
    <text id="ITEM_1_HEAD" x="500.0" y="488.0" font-weight="bold" font-size="34" fill="var(--primary-text)" text-anchor="end" data-bg-id="ITEM_1_BG" fill-opacity="1.0" stroke="none" style="font-size: 30px; font-family: Inter, Segoe UI, Kalam, Roboto, Helvetica, Arial, sans-serif; font-weight: 700; letter-spacing:-0.4px;" data-final-font-size="30">
      <tspan x="500.0" dy="35.75px">Duty Logs</tspan>
    </text>
    <rect id="ITEM_1_HEAD_FRAME" x="200.0" y="488.0" width="300.0" height="55" fill="none"/>
    <text id="ITEM_1_BODY" x="580.0" y="553.0" font-size="20" fill="var(--primary-text)" text-anchor="end" opacity="0.9" data-bg-id="ITEM_1_BG" style="font-size: 26px; font-family: Inter, Segoe UI, Kalam, Roboto, Helvetica, Arial, sans-serif; font-weight: 400;" data-final-font-size="26">
      <tspan x="580.0" dy="32.84px">Establish specific dates</tspan>
      <tspan x="580.0" dy="29.90px">and personnel shifts</tspan>
    </text>
    <rect id="ITEM_1_BODY_FRAME" x="200" y="553.0" width="380" height="120" fill="none"/>
    <!-- Segment 2: Mid Left (216 to 252 deg) -->
    <path id="ITEM_2_BG" d="M 960 650 L 676.8440519687683 444.2751616976344 A 350 350 0 0 1 851.8440519687683 317.1302192966963 Z" fill="var(--accent-5)" filter="url(#svgaf992fe9-shadow)" stroke="var(--background)" stroke-width="2" fill-opacity="0.38"/>
    <circle cx="824.8" cy="463.9" r="76" fill="url(#svgaf992fe9-universal-icon-aura)" opacity="0.84"/>
    <circle id="ITEM_2_PAD" cx="824.8" cy="463.9" r="58" fill="var(--icon-pad-bg)" stroke="var(--primary-text)" opacity="0.9" fill-opacity="0.9" stroke-width="2"/>
    <circle id="ITEM_2_PAD_INNER" cx="824.8" cy="463.9" r="45.24" fill="var(--accent-5)" fill-opacity="0.22"/>
    <circle cx="824.8" cy="463.9" r="46.4" fill="none" stroke="var(--accent-2)" stroke-width="3" stroke-dasharray="6 4"/>
    <g id="ITEM_2_ICON" transform="translate(779.8, 418.9)" data-icon-size="90">
      <g transform="translate(-0.240000000000002,5.414999999999999) scale(0.3534375)" vector-effect="non-scaling-stroke" stroke-width="2.79" stroke-linecap="round" stroke-linejoin="round" stroke-opacity="1.0">
        <line x1="248" y1="144" x2="248" y2="192" fill="none" stroke="#f1f5f9" vector-effect="non-scaling-stroke"/>
        <line x1="184" y1="36.69" x2="52.69" y2="168" fill="none" stroke="#f1f5f9" vector-effect="non-scaling-stroke"/>
        <path d="M8.59,164.59A2,2,0,0,0,10,168H52.69l37.65,37.66a8,8,0,0,0,11.32,0l120-120a8,8,0,0,0,0-11.32l-56-56a8,8,0,0,0-11.32,0Z" fill="none" stroke="#f1f5f9" vector-effect="non-scaling-stroke"/>
        <path d="M165.66,141.66l24,24a8,8,0,0,0,5.65,2.34H248" fill="none" stroke="#f1f5f9" vector-effect="non-scaling-stroke"/>
      </g>
    </g>
    <line x1="795.0" y1="425.0" x2="665.0" y2="275.0" stroke="var(--accent-2)" stroke-width="3" stroke-dasharray="6 4"/>
    <circle cx="665.0" cy="275.0" r="5" fill="var(--accent-2)"/>
    <text id="ITEM_2_HEAD" x="645.0" y="230.0" font-weight="bold" font-size="34" fill="var(--primary-text)" text-anchor="end" data-bg-id="ITEM_2_BG" fill-opacity="1.0" stroke="none" style="font-size: 30px; font-family: Inter, Segoe UI, Kalam, Roboto, Helvetica, Arial, sans-serif; font-weight: 700; letter-spacing:-0.4px;" data-final-font-size="30">
      <tspan x="645.0" dy="35.75px">Security Reports</tspan>
    </text>
    <rect id="ITEM_2_HEAD_FRAME" x="265.0" y="230.0" width="380.0" height="55" fill="none"/>
    <text id="ITEM_2_BODY" x="645.0" y="295.0" font-size="20" fill="var(--primary-text)" text-anchor="end" opacity="0.9" data-bg-id="ITEM_2_BG" style="font-size: 26px; font-family: Inter, Segoe UI, Kalam, Roboto, Helvetica, Arial, sans-serif; font-weight: 400;" data-final-font-size="26">
      <tspan x="645.0" dy="32.84px">Detail perimeter breaches</tspan>
      <tspan x="645.0" dy="29.90px">and unauthorized access</tspan>
    </text>
    <rect id="ITEM_2_BODY_FRAME" x="265" y="295.0" width="380" height="120" fill="none"/>
    <!-- Segment 3: Center (252 to 288 deg) -->
    <path id="ITEM_3_BG" d="M 960 650 L 851.8440519687683 317.1302192966963 A 350 350 0 0 1 1068.1559480312314 317.1302192966962 Z" fill="var(--accent-6)" filter="url(#svgaf992fe9-shadow)" stroke="var(--background)" stroke-width="2" fill-opacity="0.38"/>
    <circle cx="960.0" cy="455.0" r="76" fill="url(#svgaf992fe9-universal-icon-aura)" opacity="0.84"/>
    <circle id="ITEM_3_PAD" cx="960.0" cy="455.0" r="58" fill="var(--icon-pad-bg)" stroke="var(--primary-text)" opacity="0.9" fill-opacity="0.9" stroke-width="2"/>
    <circle id="ITEM_3_PAD_INNER" cx="960.0" cy="455.0" r="45.24" fill="var(--accent-6)" fill-opacity="0.22"/>
    <circle cx="960.0" cy="455.0" r="46.4" fill="none" stroke="var(--accent-3)" stroke-width="3" stroke-dasharray="6 4"/>
    <g id="ITEM_3_ICON" transform="translate(915.0, 410.0)" data-icon-size="90">
      <g transform="translate(-6.7028571428571455,-6.7028571428571455) scale(3.2314285714285718)">
        <path d="M3.2359 5.89697L6.00835 8.66735C6.26317 8.92198 6.66069 8.92198 6.91551 8.66735L8.66867 6.91549C8.92349 6.66086 8.92349 6.26364 8.66867 6.00901L5.89623 3.23862C5.53948 2.88214 5.71276 2.28121 6.19182 2.15899C7.96537 1.72102 9.92239 2.18954 11.329 3.54418C12.8928 5.05575 13.3617 7.28456 12.7243 9.22843L22.7212 19.2909C24.6418 18.6406 26.8528 19.0802 28.387 20.6132C29.7936 22.0188 30.2828 24.0049 29.8445 25.8178C29.7222 26.2864 29.1208 26.4595 28.7641 26.103L25.9917 23.3326C25.7368 23.078 25.3393 23.078 25.0845 23.3326L23.3313 25.0845C23.0765 25.3391 23.0765 25.7364 23.3313 25.991L26.1038 28.7614C26.4605 29.1179 26.2872 29.7188 25.8082 29.841C24.0346 30.279 22.0776 29.8105 20.671 28.4558C19.1243 26.9608 18.6487 24.7642 19.2552 22.8355L9.2093 12.7321C7.30512 13.3486 5.12872 12.9014 3.61304 11.3868C2.20643 9.98124 1.71717 7.99512 2.15546 6.18215C2.27778 5.71363 2.87915 5.54048 3.2359 5.89697Z" fill="#B4ACBC"/>
      </g>
    </g>
    <line x1="960.0" y1="397.0" x2="960.0" y2="200.0" stroke="var(--accent-3)" stroke-width="3" stroke-dasharray="6 4"/>
    <circle cx="960.0" cy="200.0" r="5" fill="var(--accent-3)"/>
    <text id="ITEM_3_HEAD" x="960.0" y="155.0" font-weight="bold" font-size="34" fill="var(--accent-6)" text-anchor="middle" data-bg-id="ITEM_3_BG" fill-opacity="1.0" stroke="none" style="font-size: 30px; font-family: Inter, Segoe UI, Kalam, Roboto, Helvetica, Arial, sans-serif; font-weight: 700; letter-spacing:-0.4px;" data-final-font-size="30">
      <tspan x="960.0" dy="35.75px">Maintenance Records</tspan>
    </text>
    <rect id="ITEM_3_HEAD_FRAME" x="760.0" y="155.0" width="400.0" height="55" fill="none"/>
    <text id="ITEM_3_BODY" x="960.0" y="235.0" font-size="20" fill="var(--primary-text)" text-anchor="middle" opacity="0.9" data-bg-id="ITEM_3_BG" style="font-size: 26px; font-family: Inter, Segoe UI, Kalam, Roboto, Helvetica, Arial, sans-serif; font-weight: 400;" data-final-font-size="26">
      <tspan x="960.0" dy="26.86px">Confirm mechanical</tspan>
      <tspan x="960.0" dy="29.90px">malfunctions and</tspan>
      <tspan x="960.0" dy="29.90px">hardware status</tspan>
    </text>
    <rect id="ITEM_3_BODY_FRAME" x="770" y="235.0" width="380" height="120" fill="none"/>
    <!-- Segment 4: Mid Right (288 to 324 deg) -->
    <path id="ITEM_4_BG" d="M 960 650 L 1068.1559480312314 317.1302192966962 A 350 350 0 0 1 1243.1559480312317 444.2751616976343 Z" fill="var(--accent-1)" filter="url(#svgaf992fe9-shadow)" stroke="var(--background)" stroke-width="2" fill-opacity="0.38"/>
    <circle cx="1095.2" cy="463.9" r="76" fill="url(#svgaf992fe9-universal-icon-aura)" opacity="0.84"/>
    <circle id="ITEM_4_PAD" cx="1095.2" cy="463.9" r="58" fill="var(--icon-pad-bg)" stroke="var(--primary-text)" opacity="0.9" fill-opacity="0.9" stroke-width="2"/>
    <circle id="ITEM_4_PAD_INNER" cx="1095.2" cy="463.9" r="45.24" fill="var(--accent-1)" fill-opacity="0.22"/>
    <circle cx="1095.2" cy="463.9" r="46.4" fill="none" stroke="var(--accent-4)" stroke-width="3" stroke-dasharray="6 4"/>
    <g id="ITEM_4_ICON" transform="translate(1050.2, 418.9)" data-icon-size="90">
      <g transform="translate(-4.073898305084748,-4.073898305084748) scale(4.089491525423729)" vector-effect="non-scaling-stroke" stroke-width="2.79" stroke-linecap="round" stroke-linejoin="round" stroke-opacity="1.0">
        <path d="M19.07 4.93A10 10 0 0 0 6.99 3.34" vector-effect="non-scaling-stroke" fill="none" stroke="#f1f5f9"/>
        <path d="M4 6h.01" vector-effect="non-scaling-stroke" fill="none" stroke="#f1f5f9"/>
        <path d="M2.29 9.62A10 10 0 1 0 21.31 8.35" vector-effect="non-scaling-stroke" fill="none" stroke="#f1f5f9"/>
        <path d="M16.24 7.76A6 6 0 1 0 8.23 16.67" vector-effect="non-scaling-stroke" fill="none" stroke="#f1f5f9"/>
        <path d="M12 18h.01" vector-effect="non-scaling-stroke" fill="none" stroke="#f1f5f9"/>
        <path d="M17.99 11.66A6 6 0 0 1 15.77 16.67" vector-effect="non-scaling-stroke" fill="none" stroke="#f1f5f9"/>
        <circle cx="12" cy="12" r="2" vector-effect="non-scaling-stroke" fill="none" stroke="#f1f5f9"/>
        <path d="m13.41 10.59 5.66-5.66" vector-effect="non-scaling-stroke" fill="none" stroke="#f1f5f9"/>
      </g>
    </g>
    <line x1="1125.0" y1="425.0" x2="1255.0" y2="275.0" stroke="var(--accent-4)" stroke-width="3" stroke-dasharray="6 4"/>
    <circle cx="1255.0" cy="275.0" r="5" fill="var(--accent-4)"/>
    <text id="ITEM_4_HEAD" x="1275.0" y="230.0" font-weight="bold" font-size="34" fill="var(--primary-text)" text-anchor="start" data-bg-id="ITEM_4_BG" fill-opacity="1.0" stroke="none" style="font-size: 30px; font-family: Inter, Segoe UI, Kalam, Roboto, Helvetica, Arial, sans-serif; font-weight: 700; letter-spacing:-0.4px;" data-final-font-size="30">
      <tspan x="1275.0" dy="35.75px">Sensor Data</tspan>
    </text>
    <rect id="ITEM_4_HEAD_FRAME" x="1275.0" y="230.0" width="380.0" height="55" fill="none"/>
    <text id="ITEM_4_BODY" x="1275.0" y="295.0" font-size="20" fill="var(--primary-text)" text-anchor="start" opacity="0.9" data-bg-id="ITEM_4_BG" style="font-size: 26px; font-family: Inter, Segoe UI, Kalam, Roboto, Helvetica, Arial, sans-serif; font-weight: 400;" data-final-font-size="26">
      <tspan x="1275.0" dy="32.84px">Provide objective radar</tspan>
      <tspan x="1275.0" dy="29.90px">and audio captures</tspan>
    </text>
    <rect id="ITEM_4_BODY_FRAME" x="1275" y="295.0" width="380" height="120" fill="none"/>
    <!-- Segment 5: Far Right (324 to 360 deg) -->
    <path id="ITEM_5_BG" d="M 960 650 L 1243.1559480312317 444.2751616976343 A 350 350 0 0 1 1310.0 649.9999999999999 Z" fill="var(--accent-2)" filter="url(#svgaf992fe9-shadow)" stroke="var(--background)" stroke-width="2" fill-opacity="0.38"/>
    <circle cx="1178.7" cy="578.9" r="76" fill="url(#svgaf992fe9-universal-icon-aura)" opacity="0.84"/>
    <circle id="ITEM_5_PAD" cx="1178.7" cy="578.9" r="58" fill="var(--icon-pad-bg)" stroke="var(--primary-text)" opacity="0.9" fill-opacity="0.9" stroke-width="2"/>
    <circle id="ITEM_5_PAD_INNER" cx="1178.7" cy="578.9" r="45.24" fill="var(--accent-2)" fill-opacity="0.22"/>
    <circle cx="1178.7" cy="578.9" r="46.4" fill="none" stroke="var(--accent-5)" stroke-width="3" stroke-dasharray="6 4"/>
    <g id="ITEM_5_ICON" transform="translate(1133.7, 533.9)" data-icon-size="90">
      <g transform="translate(-4.106666666666669,-4.880000000000002) scale(0.19333333333333333)" vector-effect="non-scaling-stroke" fill="#f1f5f9" fill-opacity="1.0" stroke="none">
        <path fill="#f1f5f9" d="M283.406 26c-31.262-.124-67.23 14.174-87.406 24.813c-14.187 7.48-63.924 37.248-106.594 45.5c-55.05 10.643-86.878 63.63-54.594 90.156c53.676 44.1 55.533 101.236 15.844 143.186c-43.832 46.33 1.16 113.166 63.844 105.625s89.117.543 121.03 32.44c41.408 41.38 131.457 24.757 153.595-32.595c10.275-26.614 24.304-56.372 58.594-68.563c40.316-14.328 52.335-59.373 26.217-90.625c-19.376-23.183-21.61-47.184 4.875-95.468c21.756-39.664 4.657-83.827-55.937-80.44c-45.002 2.515-64.425-27.456-97.156-59.374C314.866 30.074 299.78 26.066 283.405 26zm-20.312 76.188c87.992 0 159.53 71.508 159.53 159.5c0 87.994-71.538 159.53-159.53 159.53s-159.53-71.536-159.53-159.53c0-87.995 71.538-159.5 159.53-159.5m0 18.687c-77.892 0-140.813 62.918-140.813 140.813s62.922 140.843 140.814 140.843c77.89 0 140.844-62.948 140.844-140.842c0-77.892-62.953-140.813-140.844-140.813zm-9.344 19.188h18.688v12.562l32.218 9.78l-32 9.72h-.78v97.47H253.75V172.53l-33.344-10.124l33.344-10.125zm-51.875 40.343c9.892-.023 20.71 2.28 32.313 7.156v20.594c-14.94-7.682-27.267-9.843-36.657-8.844c-11.21 1.194-18.696 6.513-23.468 14.125c-9.34 14.902-7.106 39.607 13.907 56.157h-25.657c-14.936-20.91-15.937-47.15-4.063-66.094c7.603-12.13 20.8-20.992 37.313-22.75c2.064-.22 4.16-.34 6.312-.344m122.438 0c2.153.005 4.28.124 6.343.344c16.513 1.758 29.71 10.62 37.313 22.75c11.872 18.944 10.872 45.183-4.064 66.094H338.22c21.01-16.55 23.245-41.255 13.905-56.156c-4.77-7.613-12.258-12.932-23.47-14.125c-9.69-1.032-22.498 1.294-38.092 9.593v-20.75c12.145-5.308 23.443-7.774 33.75-7.75m-71.438 16.875q.078.049.156.095l-.155.25v-.344zm-81.563 91h183.563v18.44h-34.28v17.81h34.28v18.69H171.312v-18.69h36.47v-17.81h-36.47zm55.157 18.44v17.81h27.28v-17.81zm45.968 0v17.81h29.468v-17.81h-29.47zm-9.157 50.03c7.64 0 13.845 6.204 13.845 13.844s-6.204 13.844-13.844 13.844s-13.842-6.204-13.842-13.844s6.203-13.844 13.843-13.844zM457 410.5c-7.208.234-14.82 2.62-21.5 7.688c-34.04 25.825-9.88 74.987 31.938 40.437c32.292-26.678 13.11-48.89-10.438-48.125" vector-effect="non-scaling-stroke" stroke="none"/>
      </g>
    </g>
    <line x1="1235.0" y1="560.0" x2="1320.0" y2="533.0" stroke="var(--accent-5)" stroke-width="3" stroke-dasharray="6 4"/>
    <circle cx="1320.0" cy="533.0" r="5" fill="var(--accent-5)"/>
    <text id="ITEM_5_HEAD" x="1340.0" y="488.0" font-weight="bold" font-size="34" fill="var(--primary-text)" text-anchor="start" data-bg-id="ITEM_5_BG" fill-opacity="1.0" stroke="none" style="font-size: 30px; font-family: Inter, Segoe UI, Kalam, Roboto, Helvetica, Arial, sans-serif; font-weight: 700; letter-spacing:-0.4px;" data-final-font-size="30">
      <tspan x="1340.0" dy="35.75px">Command Memoranda</tspan>
    </text>
    <rect id="ITEM_5_HEAD_FRAME" x="1340.0" y="488.0" width="300.0" height="55" fill="none"/>
    <text id="ITEM_5_BODY" x="1340.0" y="553.0" font-size="20" fill="var(--primary-text)" text-anchor="start" opacity="0.9" data-bg-id="ITEM_5_BG" style="font-size: 26px; font-family: Inter, Segoe UI, Kalam, Roboto, Helvetica, Arial, sans-serif; font-weight: 400;" data-final-font-size="26">
      <tspan x="1340.0" dy="32.84px">Capture official leadership</tspan>
      <tspan x="1340.0" dy="29.90px">interpretations and orders</tspan>
    </text>
    <rect id="ITEM_5_BODY_FRAME" x="1340" y="553.0" width="380" height="120" fill="none"/>
    <path d="M 0 200 Q -5 215 0 225 Q 5 215 0 200" fill="var(--accent-1)" opacity="0.4"/>
    <path d="M 60 300 Q 55 315 60 325 Q 65 315 60 300" fill="var(--accent-1)" opacity="0.4"/>
    <path d="M 150 350 Q 145 365 150 375 Q 155 365 150 350" fill="var(--accent-1)" opacity="0.4"/>
    <path d="M 210 450 Q 205 465 210 475 Q 215 465 210 450" fill="var(--accent-1)" opacity="0.4"/>
    <path d="M 300 200 Q 295 215 300 225 Q 305 215 300 200" fill="var(--accent-1)" opacity="0.4"/>
    <path d="M 360 300 Q 355 315 360 325 Q 365 315 360 300" fill="var(--accent-1)" opacity="0.4"/>
    <path d="M 450 350 Q 445 365 450 375 Q 455 365 450 350" fill="var(--accent-1)" opacity="0.4"/>
    <path d="M 510 450 Q 505 465 510 475 Q 515 465 510 450" fill="var(--accent-1)" opacity="0.4"/>
    <path d="M 1500 200 Q 1495 215 1500 225 Q 1505 215 1500 200" fill="var(--accent-1)" opacity="0.4"/>
    <path d="M 1560 300 Q 1555 315 1560 325 Q 1565 315 1560 300" fill="var(--accent-1)" opacity="0.4"/>
    <path d="M 1650 350 Q 1645 365 1650 375 Q 1655 365 1650 350" fill="var(--accent-1)" opacity="0.4"/>
    <path d="M 1710 450 Q 1705 465 1710 475 Q 1715 465 1710 450" fill="var(--accent-1)" opacity="0.4"/>
    <path d="M 1800 200 Q 1795 215 1800 225 Q 1805 215 1800 200" fill="var(--accent-1)" opacity="0.4"/>
    <path d="M 1860 300 Q 1855 315 1860 325 Q 1865 315 1860 300" fill="var(--accent-1)" opacity="0.4"/>
  </g>
</svg>
