<?xml version='1.0' encoding='utf-8'?>
<svg xmlns="http://www.w3.org/2000/svg" width="1920" height="1080" viewBox="0 0 1920 1080" data-theme="dark">
  <style>
        @font-face {
            font-family: 'Inter';
            src: url('assets/fonts/Inter-Regular.ttf') format('truetype');
            font-weight: 400;
            font-style: normal;
            font-display: swap;
        }
        @font-face {
            font-family: 'Inter';
            src: url('assets/fonts/Inter-Bold.ttf') format('truetype');
            font-weight: 600;
            font-style: normal;
            font-display: swap;
        }
        @font-face {
            font-family: 'Inter';
            src: url('assets/fonts/Inter-Bold.ttf') format('truetype');
            font-weight: 800;
            font-style: normal;
            font-display: swap;
        }
        
:root {
    --background: #0f172a;
    --panel: #1e293b;
    --primary-text: #f1f5f9;
    --muted-text: #94a3b8;
    --inverse-text: #0f172a;
    --border: #334155;
    --shadow-color: #000000;
    --icon-pad-bg: #1e293b;
    --art-glow: #7dd3fc;
    --art-glow-opacity: 0.18;
    --art-sheen: #ffffff;
    --art-sheen-opacity: 0.18;
    --art-shadow: #000000;
    --art-shadow-opacity: 0.28;
    --art-muted-line: #64748b;
    --art-panel-tint: #1e293b;
    --font-family: 'Inter', 'Segoe UI', 'Kalam', Roboto, Helvetica, Arial, sans-serif;
    --radius-xl: 16px;
    --font-family-headline: 'Inter', 'Segoe UI', 'Kalam', Roboto, Helvetica, Arial, sans-serif;
    --font-family-body: 'Inter', 'Segoe UI', 'Kalam', Roboto, Helvetica, Arial, sans-serif;
    --font-heading: 'Inter', 'Segoe UI', 'Kalam', Roboto, Helvetica, Arial, sans-serif;
    --font-body: 'Inter', 'Segoe UI', 'Kalam', Roboto, Helvetica, Arial, sans-serif;
    --font-size-h1: 56px;
    --font-size-h2: 40px;
    --font-size-h3: 28px;
    --font-size-body: 24px;
    --font-size-caption: 18px;
    --secondary-text: var(--muted-text);
    --panel-border: var(--border);
    --font-weight-normal: 400;
    --font-weight-medium: 500;
    --font-weight-semibold: 600;
    --font-weight-bold: 700;
    --spacing-gutter-pct: 0.07;
    --spacing-top-pct: 0.15;
    --spacing-bottom-pct: 0.07;
    --spacing-title-y-pct: 0.055;
    --accent-1: #60a5fa;
    --accent-2: #4ade80;
    --accent-3: #f97316;
    --accent-4: #a78bfa;
    --accent-5: #38bdf8;
    --accent-6: #94a3b8;
}
:root[data-theme="dark"] {
    --background: #0f172a;
    --panel: #1e293b;
    --primary-text: #f1f5f9;
    --muted-text: #94a3b8;
    --inverse-text: #0f172a;
    --border: #334155;
    --shadow-color: #000000;
    --icon-pad-bg: #1e293b;
    --art-glow: #7dd3fc;
    --art-glow-opacity: 0.18;
    --art-sheen: #ffffff;
    --art-sheen-opacity: 0.18;
    --art-shadow: #000000;
    --art-shadow-opacity: 0.28;
    --art-muted-line: #64748b;
    --art-panel-tint: #1e293b;
    --accent-1: #60a5fa;
    --accent-2: #4ade80;
    --accent-3: #f97316;
    --accent-4: #a78bfa;
    --accent-5: #38bdf8;
    --accent-6: #94a3b8;
}
:root[data-theme="light"] {
    --background: #f8fafc;
    --panel: #ffffff;
    --primary-text: #0f172a;
    --muted-text: #64748b;
    --inverse-text: #ffffff;
    --border: #e2e8f0;
    --shadow-color: #000000;
    --icon-pad-bg: #1e293b;
    --art-glow: #0891b2;
    --art-glow-opacity: 0.10;
    --art-sheen: #ffffff;
    --art-sheen-opacity: 0.34;
    --art-shadow: #0f172a;
    --art-shadow-opacity: 0.14;
    --art-muted-line: #94a3b8;
    --art-panel-tint: #f1f5f9;
    --accent-1: #2563eb;
    --accent-2: #16a34a;
    --accent-3: #ea580c;
    --accent-4: #7c3aed;
    --accent-5: #0284c7;
    --accent-6: #475569;
}</style>
  <rect x="0" y="0" width="1.92E+3" height="1.08E+3" fill="#252a34" stroke="none" id="programmatic_background"/>
  <line id="HEADER_DECOR" x1="960.0" x2="1080.0" y1="90.0" y2="90.0" stroke="var(--accent-1)" stroke-width="6" stroke-linecap="round"/>
  <defs>
    <pattern id="svgb2256ce3-napkin-hatch" patternUnits="userSpaceOnUse" width="12" height="12">
      <path d="M -3 12 L 12 -3 M 0 15 L 15 0" fill="none" stroke="var(--primary-text)" stroke-width="1" stroke-opacity="0.05"/>
    </pattern>
    <filter id="svgb2256ce3-shadow" x="-30%" y="-30%" width="160%" height="160%">
      <feDropShadow dx="0" dy="2" stdDeviation="3" flood-color="#000000" flood-opacity="0.08"/>
      <feDropShadow dx="0" dy="6" stdDeviation="10" flood-color="#000000" flood-opacity="0.12"/>
    </filter>
    <radialGradient id="svgb2256ce3-universal-edge-vignette" cx="50%" cy="50%" r="72%">
      <stop offset="0%" stop-color="var(--background)" stop-opacity="0"/>
      <stop offset="72%" stop-color="var(--background)" stop-opacity="0.12"/>
      <stop offset="100%" stop-color="var(--primary-text)" stop-opacity="0.08"/>
    </radialGradient>
    <linearGradient id="svgb2256ce3-universal-surface-sheen" x1="0%" y1="0%" x2="100%" y2="100%">
      <stop offset="0%" stop-color="var(--art-sheen)" stop-opacity="var(--art-sheen-opacity)"/>
      <stop offset="46%" stop-color="var(--art-sheen)" stop-opacity="0.035"/>
      <stop offset="100%" stop-color="var(--art-panel-tint)" stop-opacity="0.14"/>
    </linearGradient>
    <radialGradient id="svgb2256ce3-universal-icon-aura" cx="50%" cy="42%" r="64%">
      <stop offset="0%" stop-color="var(--art-glow)" stop-opacity="var(--art-glow-opacity)"/>
      <stop offset="100%" stop-color="var(--background)" stop-opacity="0"/>
    </radialGradient>
    <filter id="svgb2256ce3-text-glow" x="-20%" y="-20%" width="140%" height="140%">
      <feDropShadow dx="0" dy="0" stdDeviation="2" flood-color="#000000" flood-opacity="0.4"/>
    </filter>
    <marker id="svgb2256ce3-arrowhead" markerWidth="10" markerHeight="7" refX="9" refY="3.5" orient="auto" markerUnits="strokeWidth">
      <polygon points="0 0, 10 3.5, 0 7" fill="var(--muted-text)" opacity="0.6"/>
    </marker>
  </defs>
  <rect width="100%" height="100%" fill="var(--background)" id="CANVAS_BG"/>
  <rect width="100%" height="100%" fill="url(#svgb2256ce3-napkin-hatch)"/>
  <rect id="UNIVERSAL_EDGE_VIGNETTE" width="100%" height="100%" fill="url(#svgb2256ce3-universal-edge-vignette)" opacity="0.62"/>
  <text id="TITLE" x="960.0" y="59" text-anchor="middle" font-weight="800" font-size="52" fill="#f1f5f9" style="font-size: 60px; font-family: Inter, Segoe UI, Kalam, Roboto, Helvetica, Arial, sans-serif; font-weight: 700; letter-spacing:-1.2px;" data-final-font-size="60">
    <tspan x="960.0" dy="68.00px">Robertson Panel Security Concerns</tspan>
  </text>
  <rect id="TITLE_FRAME" x="134" y="19" width="1652" height="75" fill="none"/>
  <!-- Larger center hub to allow bigger petals -->
  <circle cx="960" cy="530" r="112" fill="var(--primary-text)" opacity="0.1"/>
  <circle cx="960" cy="530" r="86" fill="var(--background)" stroke="var(--primary-text)" stroke-width="3" stroke-opacity="0.25"/>
  <circle cx="960" cy="530" r="52" fill="none" stroke="var(--primary-text)" stroke-width="2.5" stroke-dasharray="8 5" stroke-opacity="0.4"/>
  <!-- Petal 1 - Top (rotation -90) -->
  <g transform="translate(960, 530)">
    <g transform="rotate(-90)">
      <path id="ITEM_1_BG" d="M 65,0 Q 150,-80 240,0 Q 150,80 65,0 Z" fill="var(--accent-4)" fill-opacity="0.35" stroke="var(--accent-1)" stroke-width="2.5" filter="url(#svgb2256ce3-shadow)"/>
    </g>
    <g transform="translate(0, -150)">
      <circle id="ITEM_1_PAD" cx="0" cy="0" r="55" fill="var(--icon-pad-bg)" stroke="var(--primary-text)" opacity="0.9" fill-opacity="0.9" stroke-width="2"/>
      <circle id="ITEM_1_PAD_INNER" cx="0" cy="0" r="42.90" fill="var(--accent-4)" fill-opacity="0.22"/>
      <circle cx="0" cy="0" r="45" fill="none" stroke="var(--accent-1)" stroke-width="2.5" stroke-dasharray="5 3"/>
      <g id="ITEM_1_ICON" transform="translate(-40, -40)" data-icon-size="80" stroke-dasharray="6 4">
        <g transform="translate(-6.144537815126045,-5.784033613445376) scale(3.845378151260504)" vector-effect="non-scaling-stroke" stroke-width="2.67" stroke-linecap="round" stroke-linejoin="round" stroke-opacity="1.0">
          <path d="M4.9 16.1C1 12.2 1 5.8 4.9 1.9" vector-effect="non-scaling-stroke" fill="none" stroke="#f1f5f9"/>
          <path d="M7.8 4.7a6.14 6.14 0 0 0-.8 7.5" vector-effect="non-scaling-stroke" fill="none" stroke="#f1f5f9"/>
          <circle cx="12" cy="9" r="2" vector-effect="non-scaling-stroke" fill="none" stroke="#f1f5f9"/>
          <path d="M16.2 4.8c2 2 2.26 5.11.8 7.47" vector-effect="non-scaling-stroke" fill="none" stroke="#f1f5f9"/>
          <path d="M19.1 1.9a9.96 9.96 0 0 1 0 14.1" vector-effect="non-scaling-stroke" fill="none" stroke="#f1f5f9"/>
          <path d="M9.5 18h5" vector-effect="non-scaling-stroke" fill="none" stroke="#f1f5f9"/>
          <path d="m8 22 4-11 4 11" vector-effect="non-scaling-stroke" fill="none" stroke="#f1f5f9"/>
        </g>
      </g>
    </g>
  </g>
  <!-- Text moved closer (was y=155, now y=195) -->
  <g transform="translate(960, 195)">
    <text id="ITEM_1_HEAD" x="0.0" y="-34.0" text-anchor="middle" font-weight="bold" font-size="28" fill="var(--primary-text)" data-bg-id="ITEM_1_BG" fill-opacity="1.0" stroke="none" style="font-size: 24px; font-family: Inter, Segoe UI, Kalam, Roboto, Helvetica, Arial, sans-serif; font-weight: 700; letter-spacing:-0.4px;" data-final-font-size="24">
      <tspan x="0.0" dy="27.40px">Communication Overload</tspan>
    </text>
    <rect id="ITEM_1_HEAD_FRAME" x="-130" y="-34" width="260" height="44" fill="none"/>
    <text id="ITEM_1_BODY" x="0.0" y="14.0" text-anchor="middle" font-size="20" fill="var(--primary-text)" opacity="0.9" data-bg-id="ITEM_1_BG" style="font-size: 26px; font-family: Inter, Segoe UI, Kalam, Roboto, Helvetica, Arial, sans-serif; font-weight: 400;" data-final-font-size="26">
      <tspan x="0.0" dy="26.86px">Mass reports could flood</tspan>
      <tspan x="0.0" dy="29.90px">military warning channels</tspan>
      <tspan x="0.0" dy="29.90px">during crises</tspan>
    </text>
    <rect id="ITEM_1_BODY_FRAME" x="-190" y="14" width="380" height="120" fill="none"/>
  </g>
  <!-- Petal 2 - Upper-Right (rotation -18) -->
  <g transform="translate(960, 530)">
    <g transform="rotate(-18)">
      <path id="ITEM_2_BG" d="M 65,0 Q 150,-80 240,0 Q 150,80 65,0 Z" fill="var(--accent-5)" fill-opacity="0.35" stroke="var(--accent-2)" stroke-width="2.5" filter="url(#svgb2256ce3-shadow)"/>
    </g>
    <!-- cos(-18)*150, sin(-18)*150 = 143, -46 -->
    <g transform="translate(143, -46)">
      <circle id="ITEM_2_PAD" cx="0" cy="0" r="55" fill="var(--icon-pad-bg)" stroke="var(--primary-text)" opacity="0.9" fill-opacity="0.9" stroke-width="2"/>
      <circle id="ITEM_2_PAD_INNER" cx="0" cy="0" r="42.90" fill="var(--accent-5)" fill-opacity="0.22"/>
      <circle cx="0" cy="0" r="45" fill="none" stroke="var(--accent-2)" stroke-width="2.5" stroke-dasharray="5 3"/>
      <g id="ITEM_2_ICON" transform="translate(-40, -40)" data-icon-size="80" stroke-dasharray="6 4">
        <g transform="translate(-9.411607142857141,-9.028571428571427) scale(0.19151785714285713)" vector-effect="non-scaling-stroke" fill="#f1f5f9" fill-opacity="1.0" stroke="none">
          <path fill="#f1f5f9" d="M59.18 34.76v39.65h397.85V34.76zm67.5 51.391v73.396h39.994l-.084-.042l9.853-6.86l3.569-21.466l9.66 7.119l21.807-3.285l-3.883 11.261l6.767 13.274h173.635V86.15zm-42.87 1.62v176.01h32V87.77zm313.89 0v176.01h32V87.77zM275.706 98.397l-1.055 7.39l8.748 9.638l-7.693 2.17l-6.674 9.935l-1.383 2.06l-3.7-6.05l-13.727-2.225l5.408-5.908l-.428-13.37l7.043 2.4zM126.68 213.48v50.385h261.318V213.48zm186.41 4.4l16.308 8.05l9.284-3.086l-2.358 17.553l6.08 7.808l-17.765 2.797l-5.528 7.914l-8.623-15.824l-9.494-2.918l2.135-2.16l10.3-10.418zM79.105 281.932l-.904 18.49H434.84l-.904-18.49zm-1.783 36.49l-7.76 158.818H443.48l-7.76-158.818z" vector-effect="non-scaling-stroke" stroke="none"/>
        </g>
      </g>
    </g>
  </g>
  <!-- Text moved closer -->
  <g transform="translate(1360, 330)">
    <text id="ITEM_2_HEAD" x="0.0" y="-34.0" text-anchor="start" font-weight="bold" font-size="28" fill="var(--primary-text)" data-bg-id="ITEM_2_BG" fill-opacity="1.0" stroke="none" style="font-size: 24px; font-family: Inter, Segoe UI, Kalam, Roboto, Helvetica, Arial, sans-serif; font-weight: 700; letter-spacing:-0.4px;" data-final-font-size="24">
      <tspan x="0.0" dy="27.40px">Adversary Exploitation</tspan>
    </text>
    <rect id="ITEM_2_HEAD_FRAME" x="0" y="-34" width="260" height="44" fill="none"/>
    <text id="ITEM_2_BODY" x="0.0" y="14.0" text-anchor="start" font-size="20" fill="var(--primary-text)" opacity="0.9" data-bg-id="ITEM_2_BG" style="font-size: 26px; font-family: Inter, Segoe UI, Kalam, Roboto, Helvetica, Arial, sans-serif; font-weight: 400;" data-final-font-size="26">
      <tspan x="0.0" dy="26.86px">Hostile nations might use</tspan>
      <tspan x="0.0" dy="29.90px">public anxiety for</tspan>
      <tspan x="0.0" dy="29.90px">strategic gain</tspan>
    </text>
    <rect id="ITEM_2_BODY_FRAME" x="0" y="14" width="380" height="120" fill="none"/>
  </g>
  <!-- Petal 3 - Lower-Right (rotation 54) -->
  <g transform="translate(960, 530)">
    <g transform="rotate(54)">
      <path id="ITEM_3_BG" d="M 65,0 Q 150,-80 240,0 Q 150,80 65,0 Z" fill="var(--accent-6)" fill-opacity="0.35" stroke="var(--accent-3)" stroke-width="2.5" filter="url(#svgb2256ce3-shadow)"/>
    </g>
    <!-- cos(54)*150, sin(54)*150 = 88, 121 -->
    <g transform="translate(88, 121)">
      <circle id="ITEM_3_PAD" cx="0" cy="0" r="55" fill="var(--icon-pad-bg)" stroke="var(--primary-text)" opacity="0.9" fill-opacity="0.9" stroke-width="2"/>
      <circle id="ITEM_3_PAD_INNER" cx="0" cy="0" r="42.90" fill="var(--accent-6)" fill-opacity="0.22"/>
      <circle cx="0" cy="0" r="45" fill="none" stroke="var(--accent-3)" stroke-width="2.5" stroke-dasharray="5 3"/>
      <g id="ITEM_3_ICON" transform="translate(-40, -40)" data-icon-size="80" stroke-dasharray="6 4">
        <g transform="translate(-9.028571428571427,-8.262499999999998) scale(3.064285714285714)">
          <path d="M25.0642 23.4047L23.9155 20.598L22.2011 21.2996L23.3511 24.1097L23.3525 24.113C23.5183 24.5137 23.3281 24.9545 22.9426 25.1096L18.0368 27.1219L18.0342 27.123C17.6335 27.2888 17.1927 27.0987 17.0376 26.7132L15.8855 23.898L14.1711 24.5997L15.3202 27.4074C15.8659 28.7594 17.403 29.3881 18.741 28.8353L18.7425 28.8347L23.6372 26.8268C24.9889 26.281 25.6173 24.7444 25.065 23.4066L25.0642 23.4047ZM8 23.5L9.70824 26.7789C10.3282 27.4289 10.2982 28.4589 9.63824 29.0689C8.98824 29.6789 7.95824 29.6489 7.34824 28.9989L2.43824 23.7889C1.82824 23.1389 1.85824 22.1089 2.50824 21.4989C3.15824 20.8889 4.18824 20.9189 4.79824 21.5689L8 23.5Z" fill="#FFB02E"/>
          <path d="M29.2283 15.0788L17.6783 2.82884C16.4083 1.47884 14.1783 1.82887 13.3883 3.50887L4.79834 21.5689L9.76834 26.8389L28.3083 19.3288C30.0183 18.6388 30.4983 16.4288 29.2283 15.0788Z" fill="#F9C23C"/>
        </g>
      </g>
    </g>
  </g>
  <!-- Text moved closer -->
  <g transform="translate(1280, 760)">
    <text id="ITEM_3_HEAD" x="0.0" y="-34.0" text-anchor="start" font-weight="bold" font-size="28" fill="var(--primary-text)" data-bg-id="ITEM_3_BG" fill-opacity="1.0" stroke="none" style="font-size: 20px; font-family: Inter, Segoe UI, Kalam, Roboto, Helvetica, Arial, sans-serif; font-weight: 700; letter-spacing:-0.4px;" data-final-font-size="20">
      <tspan x="0.0" dy="25.50px">Public Interest Management</tspan>
    </text>
    <rect id="ITEM_3_HEAD_FRAME" x="0" y="-34" width="260" height="44" fill="none"/>
    <text id="ITEM_3_BODY" x="0.0" y="14.0" text-anchor="start" font-size="20" fill="var(--primary-text)" opacity="0.9" data-bg-id="ITEM_3_BG" style="font-size: 26px; font-family: Inter, Segoe UI, Kalam, Roboto, Helvetica, Arial, sans-serif; font-weight: 400;" data-final-font-size="26">
      <tspan x="0.0" dy="26.86px">Widespread fascination creates</tspan>
      <tspan x="0.0" dy="29.90px">potential vulnerabilities in</tspan>
      <tspan x="0.0" dy="29.90px">national defense</tspan>
    </text>
    <rect id="ITEM_3_BODY_FRAME" x="0" y="14" width="380" height="120" fill="none"/>
  </g>
  <!-- Petal 4 - Lower-Left (rotation 126) -->
  <g transform="translate(960, 530)">
    <g transform="rotate(126)">
      <path id="ITEM_4_BG" d="M 65,0 Q 150,-80 240,0 Q 150,80 65,0 Z" fill="var(--accent-1)" fill-opacity="0.35" stroke="var(--accent-4)" stroke-width="2.5" filter="url(#svgb2256ce3-shadow)"/>
    </g>
    <!-- cos(126)*150, sin(126)*150 = -88, 121 -->
    <g transform="translate(-88, 121)">
      <circle id="ITEM_4_PAD" cx="0" cy="0" r="55" fill="var(--icon-pad-bg)" stroke="var(--primary-text)" opacity="0.9" fill-opacity="0.9" stroke-width="2"/>
      <circle id="ITEM_4_PAD_INNER" cx="0" cy="0" r="42.90" fill="var(--accent-1)" fill-opacity="0.22"/>
      <circle cx="0" cy="0" r="45" fill="none" stroke="var(--accent-4)" stroke-width="2.5" stroke-dasharray="5 3"/>
      <g id="ITEM_4_ICON" transform="translate(-40, -40)" data-icon-size="80" stroke-dasharray="6 4">
        <g transform="translate(-11.326785714285709,-9.028571428571427) scale(3.064285714285714)">
          <path d="M9 3C9 2.44771 9.44772 2 10 2H22C22.5523 2 23 2.44772 23 3V7.25209C21.0298 5.83476 18.6124 5 16 5C13.3876 5 10.9702 5.83476 9 7.25209V3Z" fill="#3F5FFF"/>
          <path d="M16 27C18.6124 27 21.0298 26.1652 23 24.7479V29C23 29.5523 22.5523 30 22 30H10C9.44772 30 9 29.5523 9 29V24.7479C10.9702 26.1652 13.3876 27 16 27Z" fill="#3F5FFF"/>
          <path d="M27 14C26.4477 14 26 14.4477 26 15V17C26 17.5523 26.4477 18 27 18H28.5C29.0523 18 29.5 17.5523 29.5 17V15C29.5 14.4477 29.0523 14 28.5 14H27Z" fill="#3F5FFF"/>
          <path d="M28 16C28 22.6274 22.6274 28 16 28C9.37258 28 4 22.6274 4 16C4 9.37258 9.37258 4 16 4C22.6274 4 28 9.37258 28 16Z" fill="#A4AEEB"/>
          <path d="M25 16C25 20.9706 20.9706 25 16 25C11.0294 25 7 20.9706 7 16C7 11.0294 11.0294 7 16 7C20.9706 7 25 11.0294 25 16Z" fill="#5235A6"/>
          <path d="M16 8C15.4477 8 15 8.44772 15 9V15C15 15.2108 15.0652 15.4064 15.1766 15.5676L11.9103 19.2092C11.5415 19.6203 11.5758 20.2526 11.987 20.6213C12.3981 20.9901 13.0303 20.9558 13.3991 20.5446L16.7376 16.8225C17.054 16.4698 17.0737 15.9543 16.8132 15.5821C16.9308 15.4181 17 15.2171 17 15V9C17 8.44772 16.5523 8 16 8Z" fill="white"/>
          <path d="M18 16C18 17.1046 17.1046 18 16 18C14.8954 18 14 17.1046 14 16C14 14.8954 14.8954 14 16 14C17.1046 14 18 14.8954 18 16Z" fill="#FCD53F"/>
        </g>
      </g>
    </g>
  </g>
  <!-- Text moved closer -->
  <g transform="translate(640, 760)">
    <text id="ITEM_4_HEAD" x="0.0" y="-34.0" text-anchor="end" font-weight="bold" font-size="28" fill="var(--primary-text)" data-bg-id="ITEM_4_BG" fill-opacity="1.0" stroke="none" style="font-size: 21px; font-family: Inter, Segoe UI, Kalam, Roboto, Helvetica, Arial, sans-serif; font-weight: 700; letter-spacing:-0.4px;" data-final-font-size="21">
      <tspan x="0.0" dy="26.73px">Civilian Group Monitoring</tspan>
    </text>
    <rect id="ITEM_4_HEAD_FRAME" x="-260" y="-34" width="260" height="44" fill="none"/>
    <text id="ITEM_4_BODY" x="0.0" y="14.0" text-anchor="end" font-size="20" fill="var(--primary-text)" opacity="0.9" data-bg-id="ITEM_4_BG" style="font-size: 26px; font-family: Inter, Segoe UI, Kalam, Roboto, Helvetica, Arial, sans-serif; font-weight: 400;" data-final-font-size="26">
      <tspan x="0.0" dy="26.86px">Watch organizations that</tspan>
      <tspan x="0.0" dy="29.90px">influence public opinion</tspan>
      <tspan x="0.0" dy="29.90px">or become targets</tspan>
    </text>
    <rect id="ITEM_4_BODY_FRAME" x="-380" y="14" width="380" height="120" fill="none"/>
  </g>
  <!-- Petal 5 - Upper-Left (rotation 198) -->
  <g transform="translate(960, 530)">
    <g transform="rotate(198)">
      <path id="ITEM_5_BG" d="M 65,0 Q 150,-80 240,0 Q 150,80 65,0 Z" fill="var(--accent-2)" fill-opacity="0.35" stroke="var(--accent-5)" stroke-width="2.5" filter="url(#svgb2256ce3-shadow)"/>
    </g>
    <!-- cos(198)*150, sin(198)*150 = -143, -46 -->
    <g transform="translate(-143, -46)">
      <circle id="ITEM_5_PAD" cx="0" cy="0" r="55" fill="var(--icon-pad-bg)" stroke="var(--primary-text)" opacity="0.9" fill-opacity="0.9" stroke-width="2"/>
      <circle id="ITEM_5_PAD_INNER" cx="0" cy="0" r="42.90" fill="var(--accent-2)" fill-opacity="0.22"/>
      <circle cx="0" cy="0" r="45" fill="none" stroke="var(--accent-5)" stroke-width="2.5" stroke-dasharray="5 3"/>
      <g id="ITEM_5_ICON" transform="translate(-40, -40)" data-icon-size="80" stroke-dasharray="6 4">
        <g transform="translate(-10.844444444444434,-10.844444444444434) scale(4.2370370370370365)" vector-effect="non-scaling-stroke" stroke-width="2.67" stroke-linecap="round" stroke-linejoin="round" stroke-opacity="1.0">
          <path d="M8 19h-3a2 2 0 0 1 -2 -2v-10a2 2 0 0 1 2 -2h14a2 2 0 0 1 2 2v11a1 1 0 0 1 -1 1" vector-effect="non-scaling-stroke" fill="none" stroke="#f1f5f9"/>
          <path d="M11 16m0 1a1 1 0 0 1 1 -1h4a1 1 0 0 1 1 1v1a1 1 0 0 1 -1 1h-4a1 1 0 0 1 -1 -1z" vector-effect="non-scaling-stroke" fill="none" stroke="#f1f5f9"/>
        </g>
      </g>
    </g>
  </g>
  <!-- Text moved closer -->
  <g transform="translate(560, 330)">
    <text id="ITEM_5_HEAD" x="0.0" y="-34.0" text-anchor="end" font-weight="bold" font-size="28" fill="var(--primary-text)" data-bg-id="ITEM_5_BG" fill-opacity="1.0" stroke="none" style="font-size: 30px; font-family: Inter, Segoe UI, Kalam, Roboto, Helvetica, Arial, sans-serif; font-weight: 700; letter-spacing:-0.4px;" data-final-font-size="30">
      <tspan x="0.0" dy="30.25px">Aura of Mystery</tspan>
    </text>
    <rect id="ITEM_5_HEAD_FRAME" x="-260" y="-34" width="260" height="44" fill="none"/>
    <text id="ITEM_5_BODY" x="0.0" y="14.0" text-anchor="end" font-size="20" fill="var(--primary-text)" opacity="0.9" data-bg-id="ITEM_5_BG" style="font-size: 26px; font-family: Inter, Segoe UI, Kalam, Roboto, Helvetica, Arial, sans-serif; font-weight: 400;" data-final-font-size="26">
      <tspan x="0.0" dy="26.86px">Education efforts aim</tspan>
      <tspan x="0.0" dy="29.90px">to reduce public excitement</tspan>
      <tspan x="0.0" dy="29.90px">and mystery</tspan>
    </text>
    <rect id="ITEM_5_BODY_FRAME" x="-380" y="14" width="380" height="120" fill="none"/>
  </g>
</svg>
