<?xml version='1.0' encoding='utf-8'?>
<svg xmlns="http://www.w3.org/2000/svg" width="1920" height="1080" viewBox="0 0 1920 1080" data-theme="light">
  <style>
        @font-face {
            font-family: 'Inter';
            src: url('assets/fonts/Inter-Regular.ttf') format('truetype');
            font-weight: 400;
            font-style: normal;
            font-display: swap;
        }
        @font-face {
            font-family: 'Inter';
            src: url('assets/fonts/Inter-Bold.ttf') format('truetype');
            font-weight: 600;
            font-style: normal;
            font-display: swap;
        }
        @font-face {
            font-family: 'Inter';
            src: url('assets/fonts/Inter-Bold.ttf') format('truetype');
            font-weight: 800;
            font-style: normal;
            font-display: swap;
        }
        
:root {
    --background: #f8fafc;
    --panel: #ffffff;
    --primary-text: #0f172a;
    --muted-text: #64748b;
    --inverse-text: #ffffff;
    --border: #e2e8f0;
    --shadow-color: #000000;
    --icon-pad-bg: #1e293b;
    --art-glow: #0891b2;
    --art-glow-opacity: 0.10;
    --art-sheen: #ffffff;
    --art-sheen-opacity: 0.34;
    --art-shadow: #0f172a;
    --art-shadow-opacity: 0.14;
    --art-muted-line: #94a3b8;
    --art-panel-tint: #f1f5f9;
    --font-family: 'Inter', 'Segoe UI', 'Kalam', Roboto, Helvetica, Arial, sans-serif;
    --radius-xl: 16px;
    --font-family-headline: 'Inter', 'Segoe UI', 'Kalam', Roboto, Helvetica, Arial, sans-serif;
    --font-family-body: 'Inter', 'Segoe UI', 'Kalam', Roboto, Helvetica, Arial, sans-serif;
    --font-heading: 'Inter', 'Segoe UI', 'Kalam', Roboto, Helvetica, Arial, sans-serif;
    --font-body: 'Inter', 'Segoe UI', 'Kalam', Roboto, Helvetica, Arial, sans-serif;
    --font-size-h1: 56px;
    --font-size-h2: 40px;
    --font-size-h3: 28px;
    --font-size-body: 24px;
    --font-size-caption: 18px;
    --secondary-text: var(--muted-text);
    --panel-border: var(--border);
    --font-weight-normal: 400;
    --font-weight-medium: 500;
    --font-weight-semibold: 600;
    --font-weight-bold: 700;
    --spacing-gutter-pct: 0.07;
    --spacing-top-pct: 0.15;
    --spacing-bottom-pct: 0.07;
    --spacing-title-y-pct: 0.055;
    --accent-1: #d97706;
    --accent-2: #ea580c;
    --accent-3: #dc2626;
    --accent-4: #65a30d;
    --accent-5: #16a34a;
    --accent-6: #92400e;
}
:root[data-theme="dark"] {
    --background: #0f172a;
    --panel: #1e293b;
    --primary-text: #f1f5f9;
    --muted-text: #94a3b8;
    --inverse-text: #0f172a;
    --border: #334155;
    --shadow-color: #000000;
    --icon-pad-bg: #1e293b;
    --art-glow: #7dd3fc;
    --art-glow-opacity: 0.18;
    --art-sheen: #ffffff;
    --art-sheen-opacity: 0.18;
    --art-shadow: #000000;
    --art-shadow-opacity: 0.28;
    --art-muted-line: #64748b;
    --art-panel-tint: #1e293b;
    --accent-1: #fbbf24;
    --accent-2: #fb923c;
    --accent-3: #f87171;
    --accent-4: #a3e635;
    --accent-5: #4ade80;
    --accent-6: #d4a574;
}
:root[data-theme="light"] {
    --background: #f8fafc;
    --panel: #ffffff;
    --primary-text: #0f172a;
    --muted-text: #64748b;
    --inverse-text: #ffffff;
    --border: #e2e8f0;
    --shadow-color: #000000;
    --icon-pad-bg: #1e293b;
    --art-glow: #0891b2;
    --art-glow-opacity: 0.10;
    --art-sheen: #ffffff;
    --art-sheen-opacity: 0.34;
    --art-shadow: #0f172a;
    --art-shadow-opacity: 0.14;
    --art-muted-line: #94a3b8;
    --art-panel-tint: #f1f5f9;
    --accent-1: #d97706;
    --accent-2: #ea580c;
    --accent-3: #dc2626;
    --accent-4: #65a30d;
    --accent-5: #16a34a;
    --accent-6: #92400e;
}</style>
  <rect x="0" y="0" width="1.92E+3" height="1.08E+3" fill="#252a34" stroke="none" id="programmatic_background"/>
  <line id="HEADER_DECOR" x1="960.0" x2="1080.0" y1="135.0" y2="135.0" stroke="var(--accent-1)" stroke-width="6" stroke-linecap="round"/>
  <defs>
    <pattern id="svg265c9a75-napkin-hatch" patternUnits="userSpaceOnUse" width="12" height="12">
      <path d="M -3 12 L 12 -3 M 0 15 L 15 0" fill="none" stroke="var(--primary-text)" stroke-width="1" stroke-opacity="0.04"/>
    </pattern>
    <filter id="svg265c9a75-soft-shadow" x="-30%" y="-30%" width="160%" height="160%">
      <feDropShadow dx="0" dy="4" stdDeviation="8" flood-color="#000000" flood-opacity="0.18"/>
    </filter>
    <radialGradient id="svg265c9a75-universal-edge-vignette" cx="50%" cy="50%" r="72%">
      <stop offset="0%" stop-color="var(--background)" stop-opacity="0"/>
      <stop offset="72%" stop-color="var(--background)" stop-opacity="0.12"/>
      <stop offset="100%" stop-color="var(--primary-text)" stop-opacity="0.08"/>
    </radialGradient>
    <linearGradient id="svg265c9a75-universal-surface-sheen" x1="0%" y1="0%" x2="100%" y2="100%">
      <stop offset="0%" stop-color="var(--art-sheen)" stop-opacity="var(--art-sheen-opacity)"/>
      <stop offset="46%" stop-color="var(--art-sheen)" stop-opacity="0.035"/>
      <stop offset="100%" stop-color="var(--art-panel-tint)" stop-opacity="0.14"/>
    </linearGradient>
    <radialGradient id="svg265c9a75-universal-icon-aura" cx="50%" cy="42%" r="64%">
      <stop offset="0%" stop-color="var(--art-glow)" stop-opacity="var(--art-glow-opacity)"/>
      <stop offset="100%" stop-color="var(--background)" stop-opacity="0"/>
    </radialGradient>
    <linearGradient id="svg265c9a75-tug-rope-sheen" x1="0%" y1="0%" x2="100%" y2="0%">
      <stop offset="0%" stop-color="var(--background)" stop-opacity="0"/>
      <stop offset="50%" stop-color="var(--inverse-text)" stop-opacity="0.16"/>
      <stop offset="100%" stop-color="var(--background)" stop-opacity="0"/>
    </linearGradient>
    <filter id="svg265c9a75-text-glow" x="-20%" y="-20%" width="140%" height="140%">
      <feDropShadow dx="0" dy="0" stdDeviation="2" flood-color="#000000" flood-opacity="0.4"/>
    </filter>
    <filter id="svg265c9a75-shadow" x="-30%" y="-30%" width="160%" height="160%">
      <feDropShadow dx="0" dy="2" stdDeviation="3" flood-color="#000000" flood-opacity="0.08"/>
      <feDropShadow dx="0" dy="6" stdDeviation="10" flood-color="#000000" flood-opacity="0.12"/>
    </filter>
    <marker id="svg265c9a75-arrowhead" markerWidth="10" markerHeight="7" refX="9" refY="3.5" orient="auto" markerUnits="strokeWidth">
      <polygon points="0 0, 10 3.5, 0 7" fill="var(--muted-text)" opacity="0.6"/>
    </marker>
  </defs>
  <rect id="CANVAS_BG" width="100%" height="100%" fill="var(--background)"/>
  <rect width="100%" height="100%" fill="url(#svg265c9a75-napkin-hatch)"/>
  <rect id="UNIVERSAL_EDGE_VIGNETTE" width="100%" height="100%" fill="url(#svg265c9a75-universal-edge-vignette)" opacity="0.62"/>
  <text id="TITLE" x="960.0" y="59" text-anchor="middle" font-size="56" font-weight="800" fill="#0f172a" style="font-size: 60px; font-family: Inter, Segoe UI, Kalam, Roboto, Helvetica, Arial, sans-serif; font-weight: 700; letter-spacing:-1.2px;" data-final-font-size="60">
    <tspan x="960.0" dy="68.00px">Radar Limitations Near Nuclear Bases</tspan>
  </text>
  <rect id="TITLE_FRAME" x="134" y="59" width="1652" height="103" fill="none"/>
  <ellipse cx="960" cy="332" rx="220" ry="58" fill="var(--panel)" fill-opacity="0.48" opacity="0.34"/>
  <path d="M 162 322 Q 614 304 934 332" fill="none" stroke="var(--primary-text)" stroke-width="16" stroke-linecap="round" opacity="0.10"/>
  <path d="M 1758 322 Q 1306 304 986 332" fill="none" stroke="var(--primary-text)" stroke-width="16" stroke-linecap="round" opacity="0.10"/>
  <path d="M 200 322 Q 616 308 936 332" fill="none" stroke="var(--muted-text)" stroke-width="8" stroke-linecap="round" opacity="0.88"/>
  <path d="M 1720 322 Q 1304 308 984 332" fill="none" stroke="var(--muted-text)" stroke-width="8" stroke-linecap="round" opacity="0.88"/>
  <path d="M 862 316 L 934 329" fill="none" stroke="var(--accent-2)" stroke-width="3" stroke-linecap="round" opacity="0.22"/>
  <path d="M 1058 316 L 986 329" fill="none" stroke="var(--accent-3)" stroke-width="3" stroke-linecap="round" opacity="0.22"/>
  <circle cx="960" cy="332" r="24" fill="var(--panel)" fill-opacity="0.94" stroke="var(--primary-text)" stroke-width="3"/>
  <path d="M 960 308 L 982 332 L 960 356 L 938 332 Z" fill="var(--primary-text)"/>
  <path d="M 350 334 L 382 384" fill="none" stroke="var(--muted-text)" stroke-width="3" stroke-linecap="round" opacity="0.7"/>
  <circle cx="382" cy="384" r="6" fill="var(--accent-1)"/>
  <g transform="translate(292, 414)" filter="url(#svg265c9a75-soft-shadow)">
    <path d="M 46 0 L 74 -28 L 118 -28 Q 128 -28 132 -18 L 140 0 Z" fill="var(--panel)" fill-opacity="0.95" stroke="var(--accent-1)" stroke-width="3"/>
    <rect id="ITEM_1_BG" x="-185" y="0" width="370" height="344" rx="22" fill="var(--panel)" fill-opacity="0.96" stroke="var(--accent-1)" stroke-width="3"/>
    <rect x="-156" y="14" width="286" height="8" rx="4" fill="var(--accent-1)" fill-opacity="0.42"/>
    <path d="M 60 28 L 154 28 L 130 318 L 72 318 Z" fill="var(--accent-1)" fill-opacity="0.07"/>
    <circle id="ITEM_1_PAD" cx="0" cy="78" r="42" fill="var(--icon-pad-bg)" stroke="var(--primary-text)" opacity="0.92" fill-opacity="0.9" stroke-width="2"/>
    <circle id="ITEM_1_PAD_INNER" cx="0" cy="78" r="32.76" fill="var(--accent-3)" fill-opacity="0.22"/>
    <circle cx="0" cy="78" r="32" fill="none" stroke="var(--accent-1)" stroke-width="2.25" stroke-dasharray="5 4" opacity="0.82"/>
    <g id="ITEM_1_ICON" transform="translate(-31, 46)" data-icon-size="62" stroke-dasharray="5 4">
      <g transform="translate(-6.439999999999998,-8.487499999999997) scale(2.34)">
        <path d="M8.97695 9.81822C7.68369 9.81822 7.53001 10.5467 7.61483 10.9109V25.3158L24.7324 27.2146L30.0002 22.5V15.0422L23.1876 8.26566L22.8596 8.02197L15.5002 9L12.4142 8.02197C12.2033 8.15625 11.951 8.32512 11.8094 8.46545C10.993 9.27463 10.3546 9.81822 8.97695 9.81822Z" fill="#8C5543"/>
        <path d="M13.6198 9.31063C13.035 9.08884 12.4462 8.80135 11.8037 8.47407C12.4581 7.81966 14.0595 6.21636 15.2299 5.03847C16.6928 3.5661 18.656 3.69821 19.9679 5.03847C20.2326 5.30884 20.5296 5.60931 20.8363 5.91774C18.5156 7.0625 16.3906 7.6875 13.6198 9.31063Z" fill="#CDC4D6"/>
        <path d="M13.1558 9.12228C14.1001 9.52955 15.0007 9.7862 16.0606 9.7862C17.6085 9.7862 18.8166 9.19163 19.4207 8.87073C20.0247 8.54982 21.0818 8.2006 21.9973 8.2006C22.7003 8.2006 23.0885 8.25855 23.2104 8.29102C22.8107 7.89374 22.362 7.44613 21.9279 7.00997C21.5508 6.63436 21.1458 6.22946 20.7593 5.84035C19.4543 4.68908 17.6172 4.64256 16.23 6.03871C15.2344 7.04072 13.9269 8.35058 13.1558 9.12228Z" fill="#F4F4F4"/>
        <path d="M5.96834 11.2402C5.07024 12.3299 2.95313 14.8594 2.00684 15.9879V22.5L16 27.8125L22.9724 25.3105L15.8325 18.1406C14.7667 17.0629 13.3627 16.2097 11.7162 16.2097C9.99483 16.2097 8.99195 14.7428 8.99195 13.0065C8.99195 10.9666 12.3886 10.1728 13.1604 9.12524C12.4433 8.81133 12.1057 8.64478 11.8209 8.46558C10.6252 9.68774 9.79822 9.78931 9.29321 9.78931C8.96166 9.78931 7.59646 9.61208 5.96834 11.2402Z" fill="#7D4533"/>
        <path d="M11.0125 23.0202C7.06082 21.6581 4.12549 21.9275 2 22.4664V29.9955H30V22.4609C26.8267 23.8679 23.4212 25.0261 20.0084 25.0261C16.5956 25.0261 14.9641 24.3824 11.0125 23.0202Z" fill="#00D26A"/>
      </g>
    </g>
    <text id="ITEM_1_HEAD" x="0.0" y="138.0" text-anchor="middle" font-size="38" font-weight="800" fill="var(--accent-3)" data-bg-id="ITEM_1_BG" data-max-lines="3" data-min-font-size="13" fill-opacity="1.0" style="font-size: 30px; font-family: Inter, Segoe UI, Kalam, Roboto, Helvetica, Arial, sans-serif; font-weight: 700; letter-spacing:-0.4px;" data-final-font-size="30">
      <tspan x="0.0" dy="41.25px">Terrain Shielding</tspan>
    </text>
    <rect id="ITEM_1_HEAD_FRAME" x="-152" y="138" width="304" height="66" fill="none"/>
    <text id="ITEM_1_BODY" x="0.0" y="204.0" text-anchor="middle" font-size="24" fill="var(--primary-text)" data-bg-id="ITEM_1_BG" style="font-size: 26px; font-family: Inter, Segoe UI, Kalam, Roboto, Helvetica, Arial, sans-serif; font-weight: 400;" data-final-font-size="26">
      <tspan x="0.0" dy="36.84px">Hills and forests block</tspan>
      <tspan x="0.0" dy="29.90px">line-of-sight detection</tspan>
    </text>
    <rect id="ITEM_1_BODY_FRAME" x="-162" y="204" width="324" height="140" fill="none"/>
  </g>
  <path d="M 852 336 L 812 356" fill="none" stroke="var(--muted-text)" stroke-width="3" stroke-linecap="round" opacity="0.7"/>
  <circle cx="812" cy="356" r="6" fill="var(--accent-2)"/>
  <g transform="translate(722, 386)" filter="url(#svg265c9a75-soft-shadow)">
    <path d="M 46 0 L 74 -28 L 118 -28 Q 128 -28 132 -18 L 140 0 Z" fill="var(--panel)" fill-opacity="0.95" stroke="var(--accent-2)" stroke-width="3"/>
    <rect id="ITEM_2_BG" x="-185" y="0" width="370" height="344" rx="22" fill="var(--panel)" fill-opacity="0.96" stroke="var(--accent-2)" stroke-width="3"/>
    <rect x="-156" y="14" width="286" height="8" rx="4" fill="var(--accent-2)" fill-opacity="0.42"/>
    <path d="M 60 28 L 154 28 L 130 318 L 72 318 Z" fill="var(--accent-2)" fill-opacity="0.07"/>
    <circle id="ITEM_2_PAD" cx="0" cy="78" r="42" fill="var(--icon-pad-bg)" stroke="var(--primary-text)" opacity="0.92" fill-opacity="0.9" stroke-width="2"/>
    <circle id="ITEM_2_PAD_INNER" cx="0" cy="78" r="32.76" fill="var(--accent-4)" fill-opacity="0.22"/>
    <circle cx="0" cy="78" r="32" fill="none" stroke="var(--accent-2)" stroke-width="2.25" stroke-dasharray="5 4" opacity="0.82"/>
    <g id="ITEM_2_ICON" transform="translate(-31, 46)" data-icon-size="62" stroke-dasharray="5 4">
      <g transform="translate(-7.826666666666664,-7.826666666666666) scale(3.2355555555555555)" vector-effect="non-scaling-stroke" fill="#f1f5f9" fill-opacity="1.0" stroke="none">
        <path fill="#f1f5f9" d="M12 20H2v-2h5.75C7 15.19 4.81 13 2 12.26c.64-.16 1.31-.26 2-.26c4.42 0 8 3.58 8 8m10-7.74c-.64-.16-1.31-.26-2-.26c-2.93 0-5.5 1.58-6.88 3.93c.29.66.53 1.35.67 2.07c.13.65.21 1.32.21 2h8v-2h-5.76c.76-2.81 2.95-5 5.76-5.74M15.64 11c.78-2.07 2.23-3.82 4.09-5c-4.29.16-7.73 3.67-7.73 8c.95-1.25 2.2-2.28 3.64-3m-4.22-2.15A8.53 8.53 0 0 0 6.7 4C8.14 5.86 9 8.18 9 10.71c0 .21-.03.41-.04.61c.43.24.83.52 1.22.82a9.9 9.9 0 0 1 1.24-3.29" vector-effect="non-scaling-stroke" stroke="none"/>
      </g>
    </g>
    <text id="ITEM_2_HEAD" x="0.0" y="138.0" text-anchor="middle" font-size="38" font-weight="800" fill="var(--primary-text)" data-bg-id="ITEM_2_BG" data-max-lines="3" data-min-font-size="13" fill-opacity="1.0" style="font-size: 30px; font-family: Inter, Segoe UI, Kalam, Roboto, Helvetica, Arial, sans-serif; font-weight: 700; letter-spacing:-0.4px;" data-final-font-size="30">
      <tspan x="0.0" dy="41.25px">Low-Altitude Clutter</tspan>
    </text>
    <rect id="ITEM_2_HEAD_FRAME" x="-152" y="138" width="304" height="66" fill="none"/>
    <text id="ITEM_2_BODY" x="0.0" y="204.0" text-anchor="middle" font-size="24" fill="var(--primary-text)" data-bg-id="ITEM_2_BG" style="font-size: 26px; font-family: Inter, Segoe UI, Kalam, Roboto, Helvetica, Arial, sans-serif; font-weight: 400;" data-final-font-size="26">
      <tspan x="0.0" dy="30.86px">Ground features interfere</tspan>
      <tspan x="0.0" dy="29.90px">with near-surface</tspan>
      <tspan x="0.0" dy="29.90px">tracking</tspan>
    </text>
    <rect id="ITEM_2_BODY_FRAME" x="-162" y="204" width="324" height="140" fill="none"/>
  </g>
  <path d="M 1068 336 L 1108 356" fill="none" stroke="var(--muted-text)" stroke-width="3" stroke-linecap="round" opacity="0.7"/>
  <circle cx="1108" cy="356" r="6" fill="var(--accent-3)"/>
  <g transform="translate(1198, 386)" filter="url(#svg265c9a75-soft-shadow)">
    <path d="M -46 0 L -74 -28 L -118 -28 Q -128 -28 -132 -18 L -140 0 Z" fill="var(--panel)" fill-opacity="0.95" stroke="var(--accent-3)" stroke-width="3"/>
    <rect id="ITEM_3_BG" x="-185" y="0" width="370" height="344" rx="22" fill="var(--panel)" fill-opacity="0.96" stroke="var(--accent-3)" stroke-width="3"/>
    <rect x="-130" y="14" width="286" height="8" rx="4" fill="var(--accent-3)" fill-opacity="0.42"/>
    <path d="M -60 28 L -154 28 L -130 318 L -72 318 Z" fill="var(--accent-3)" fill-opacity="0.07"/>
    <circle id="ITEM_3_PAD" cx="0" cy="78" r="42" fill="var(--icon-pad-bg)" stroke="var(--primary-text)" opacity="0.92" fill-opacity="0.9" stroke-width="2"/>
    <circle id="ITEM_3_PAD_INNER" cx="0" cy="78" r="32.76" fill="var(--accent-5)" fill-opacity="0.22"/>
    <circle cx="0" cy="78" r="32" fill="none" stroke="var(--accent-3)" stroke-width="2.25" stroke-dasharray="5 4" opacity="0.82"/>
    <g id="ITEM_3_ICON" transform="translate(-31, 46)" data-icon-size="62" stroke-dasharray="5 4">
      <g transform="translate(-7.609999999999996,-6.439999999999998) scale(2.34)">
        <path d="M23.5638 18.9L28.6756 17.54C29.229 17.39 29.8126 17.69 29.9636 18.25C30.1145 18.81 29.7824 19.37 29.229 19.52L26.1197 20.35L28.3435 21.62C28.8265 21.9 28.9976 22.51 28.7158 22.99C28.4341 23.47 27.8203 23.64 27.3373 23.36L25.1135 22.09L25.9486 25.18C26.0996 25.74 25.7776 26.3 25.2141 26.45C24.6506 26.6 24.0871 26.27 23.9361 25.72L22.5677 20.64L20.2533 19.31C19.5389 20.1 18.593 20.68 17.5062 20.9V23.53L21.2495 27.25C21.652 27.65 21.652 28.31 21.2495 28.71C20.847 29.11 20.1829 29.11 19.7804 28.71L17.5062 26.45V29C17.5062 29.55 17.0534 30 16.5 30C15.9466 30 15.4938 29.55 15.4938 29V26.46L13.2196 28.72C12.8171 29.12 12.153 29.12 11.7505 28.72C11.348 28.32 11.348 27.66 11.7505 27.26L15.4938 23.54V20.91C14.3969 20.69 13.4611 20.11 12.7467 19.32L10.4424 20.64L9.07391 25.72C8.92298 26.27 8.34942 26.6 7.79598 26.45C7.24255 26.3 6.91049 25.73 7.06142 25.18L7.89661 22.09L5.6728 23.37C5.18981 23.64 4.576 23.48 4.29425 23C4.0125 22.52 4.18356 21.91 4.6565 21.65L6.8803 20.37L3.771 19.54C3.21757 19.39 2.88551 18.82 3.03644 18.27C3.18738 17.72 3.76094 17.39 4.31437 17.54L9.4261 18.9L11.7405 17.57C11.5694 17.08 11.4587 16.55 11.4587 16C11.4587 15.45 11.5694 14.92 11.7405 14.45L9.4261 13.12L4.31437 14.48C3.75088 14.63 3.18738 14.3 3.03644 13.75C2.88551 13.19 3.21757 12.63 3.771 12.48L6.8803 11.65L4.6565 10.37C4.18356 10.09 4.0125 9.48 4.29425 9C4.56594 8.52 5.18981 8.36 5.66274 8.63L7.89661 9.91L7.06142 6.82C6.91049 6.27 7.24255 5.71 7.79598 5.56C8.34942 5.41 8.91291 5.74 9.06385 6.29L10.4323 11.37L12.7366 12.69C13.4511 11.9 14.3969 11.32 15.4837 11.1V8.47L11.7405 4.75C11.338 4.35 11.338 3.69 11.7405 3.29C12.143 2.89 12.8071 2.89 13.2096 3.29L15.4837 5.55V3C15.4837 2.45 15.9365 2 16.4899 2C17.0434 2 17.4962 2.45 17.4962 3V5.55L19.7703 3.29C20.1728 2.89 20.8369 2.89 21.2394 3.29C21.6419 3.69 21.6419 4.35 21.2394 4.75L17.4962 8.47V11.1C18.5829 11.32 19.5288 11.9 20.2332 12.68L22.5475 11.35L23.916 6.27C24.067 5.72 24.6405 5.39 25.194 5.54C25.7474 5.69 26.0795 6.26 25.9285 6.81L25.0933 9.9L27.3171 8.63C27.8001 8.36 28.4139 8.52 28.6957 9C28.9674 9.48 28.8064 10.09 28.3334 10.36L26.1096 11.63L29.2189 12.46C29.7724 12.61 30.1044 13.18 29.9535 13.73C29.8026 14.28 29.229 14.61 28.6756 14.46L23.5638 13.1L21.2495 14.43C21.4205 14.92 21.5312 15.45 21.5312 16C21.5312 16.55 21.4205 17.07 21.2495 17.57L23.5638 18.9ZM19.5087 16C19.5087 14.3431 18.1572 13 16.49 13C14.8228 13 13.4712 14.3431 13.4712 16C13.4712 17.6569 14.8228 19 16.49 19C18.1572 19 19.5087 17.6569 19.5087 16Z" fill="#00A6ED"/>
      </g>
    </g>
    <text id="ITEM_3_HEAD" x="0.0" y="138.0" text-anchor="middle" font-size="38" font-weight="800" fill="var(--primary-text)" data-bg-id="ITEM_3_BG" data-max-lines="3" data-min-font-size="13" fill-opacity="1.0" style="font-size: 30px; font-family: Inter, Segoe UI, Kalam, Roboto, Helvetica, Arial, sans-serif; font-weight: 700; letter-spacing:-0.4px;" data-final-font-size="30">
      <tspan x="0.0" dy="41.25px">Weather Distortion</tspan>
    </text>
    <rect id="ITEM_3_HEAD_FRAME" x="-152" y="138" width="304" height="66" fill="none"/>
    <text id="ITEM_3_BODY" x="0.0" y="204.0" text-anchor="middle" font-size="24" fill="var(--primary-text)" data-bg-id="ITEM_3_BG" style="font-size: 26px; font-family: Inter, Segoe UI, Kalam, Roboto, Helvetica, Arial, sans-serif; font-weight: 400;" data-final-font-size="26">
      <tspan x="0.0" dy="30.86px">Heavy precipitation and</tspan>
      <tspan x="0.0" dy="29.90px">snow attenuate signal</tspan>
      <tspan x="0.0" dy="29.90px">strength</tspan>
    </text>
    <rect id="ITEM_3_BODY_FRAME" x="-162" y="204" width="324" height="140" fill="none"/>
  </g>
  <path d="M 1570 334 L 1538 384" fill="none" stroke="var(--muted-text)" stroke-width="3" stroke-linecap="round" opacity="0.7"/>
  <circle cx="1538" cy="384" r="6" fill="var(--accent-4)"/>
  <g transform="translate(1628, 414)" filter="url(#svg265c9a75-soft-shadow)">
    <path d="M -46 0 L -74 -28 L -118 -28 Q -128 -28 -132 -18 L -140 0 Z" fill="var(--panel)" fill-opacity="0.95" stroke="var(--accent-4)" stroke-width="3"/>
    <rect id="ITEM_4_BG" x="-185" y="0" width="370" height="344" rx="22" fill="var(--panel)" fill-opacity="0.96" stroke="var(--accent-4)" stroke-width="3"/>
    <rect x="-130" y="14" width="286" height="8" rx="4" fill="var(--accent-4)" fill-opacity="0.42"/>
    <path d="M -60 28 L -154 28 L -130 318 L -72 318 Z" fill="var(--accent-4)" fill-opacity="0.07"/>
    <circle id="ITEM_4_PAD" cx="0" cy="78" r="42" fill="var(--icon-pad-bg)" stroke="var(--primary-text)" opacity="0.92" fill-opacity="0.9" stroke-width="2"/>
    <circle id="ITEM_4_PAD_INNER" cx="0" cy="78" r="32.76" fill="var(--accent-6)" fill-opacity="0.22"/>
    <circle cx="0" cy="78" r="32" fill="none" stroke="var(--accent-4)" stroke-width="2.25" stroke-dasharray="5 4" opacity="0.82"/>
    <g id="ITEM_4_ICON" transform="translate(-31, 46)" data-icon-size="62" stroke-dasharray="5 4">
      <g transform="translate(-5.119999999999997,-12.959999999999994) scale(0.13999999999999999)" vector-effect="non-scaling-stroke" fill="#f1f5f9" fill-opacity="1.0" stroke="none">
        <path fill="#f1f5f9" d="M288 133v18h160v-18zm41 34v16h78v-16zM64 201c-5.75 0-10.406 1.939-15.074 6.023c-4.668 4.085-9.078 10.48-12.701 18.631C28.978 241.96 25 265 25 288s3.978 46.041 11.225 62.346c3.623 8.152 8.033 14.546 12.7 18.63C53.595 373.062 58.25 375 64 375h5.055l2-17.994l.89-8.006h80.11l2.888 26H183V201zm137 0v46h46v-46zm64 0v174h28.055l2-17.994l.89-8.006h80.11l2.888 26H448c5.75 0 10.406-1.94 15.074-6.023c4.668-4.085 9.08-10.48 12.703-18.631c7.247-16.304 11.225-39.343 11.225-62.342c0-23-3.976-46.04-11.223-62.344c-3.623-8.152-8.034-14.55-12.703-18.635c-4.668-4.084-9.326-6.024-15.076-6.025zm-64 64v46h46v-46zm0 64v46h46v-46zM88.057 367l-14 126h75.886l-13.998-126zm224 0l-14 126h75.886l-13.998-126zM183 384v110h18v-37h46v37h18V384h-18v55h-46v-55zm226 9v30h30v-30zm6.803 48c5.844 19.928 16.417 32.884 28.318 40.563C462.214 493.235 482 493 490 493v-18c-8 0-23.214-.235-36.121-8.563c-7.548-4.87-14.772-12.42-19.473-25.437z" vector-effect="non-scaling-stroke" stroke="none"/>
      </g>
    </g>
    <text id="ITEM_4_HEAD" x="0.0" y="138.0" text-anchor="middle" font-size="38" font-weight="800" fill="var(--accent-6)" data-bg-id="ITEM_4_BG" data-max-lines="3" data-min-font-size="13" fill-opacity="1.0" style="font-size: 30px; font-family: Inter, Segoe UI, Kalam, Roboto, Helvetica, Arial, sans-serif; font-weight: 700; letter-spacing:-0.4px;" data-final-font-size="30">
      <tspan x="0.0" dy="41.25px">Multipath Effects</tspan>
    </text>
    <rect id="ITEM_4_HEAD_FRAME" x="-152" y="138" width="304" height="66" fill="none"/>
    <text id="ITEM_4_BODY" x="0.0" y="204.0" text-anchor="middle" font-size="24" fill="var(--primary-text)" data-bg-id="ITEM_4_BG" style="font-size: 26px; font-family: Inter, Segoe UI, Kalam, Roboto, Helvetica, Arial, sans-serif; font-weight: 400;" data-final-font-size="26">
      <tspan x="0.0" dy="30.86px">Signals bounce off</tspan>
      <tspan x="0.0" dy="29.90px">hangars and fuel</tspan>
      <tspan x="0.0" dy="29.90px">facilities</tspan>
    </text>
    <rect id="ITEM_4_BODY_FRAME" x="-162" y="204" width="324" height="140" fill="none"/>
  </g>
</svg>
